<svg width="1440" height="120" viewBox="0 0 1440 120" fill="none" xmlns="http://www.w3.org/2000/svg">
<rect width="1440" height="120" fill="white"/>
<path d="M508 32.5H932C936.142 32.5 939.5 35.8579 939.5 40V76C939.5 80.1421 936.142 83.5 932 83.5H508C503.858 83.5 500.5 80.1421 500.5 76V40C500.5 35.8579 503.858 32.5 508 32.5Z" fill="white" stroke="black"/>
<path d="M557.013 63.0615C557.013 64.1618 556.738 65.1012 556.188 65.8799C555.646 66.6501 554.884 67.2383 553.902 67.6445C552.921 68.0508 551.765 68.2539 550.437 68.2539C549.734 68.2539 549.07 68.2201 548.443 68.1523C547.817 68.0846 547.242 67.9873 546.717 67.8604C546.192 67.7334 545.731 67.5768 545.333 67.3906V65.3213C545.968 65.5837 546.742 65.8291 547.656 66.0576C548.57 66.2777 549.527 66.3877 550.525 66.3877C551.456 66.3877 552.243 66.265 552.887 66.0195C553.53 65.7656 554.017 65.4059 554.347 64.9404C554.685 64.4665 554.854 63.8994 554.854 63.2393C554.854 62.6045 554.715 62.0755 554.436 61.6523C554.156 61.2207 553.691 60.8314 553.039 60.4844C552.396 60.1289 551.516 59.7523 550.398 59.3545C549.611 59.0752 548.917 58.7705 548.316 58.4404C547.715 58.1019 547.212 57.721 546.806 57.2979C546.399 56.8747 546.09 56.3838 545.879 55.8252C545.676 55.2666 545.574 54.6276 545.574 53.9082C545.574 52.918 545.824 52.0716 546.323 51.3691C546.831 50.6582 547.529 50.1165 548.418 49.7441C549.315 49.3633 550.343 49.1729 551.503 49.1729C552.493 49.1729 553.407 49.266 554.245 49.4521C555.091 49.6383 555.866 49.888 556.568 50.2012L555.896 52.0547C555.227 51.7754 554.516 51.5426 553.763 51.3564C553.018 51.1702 552.248 51.0771 551.452 51.0771C550.657 51.0771 549.984 51.1956 549.434 51.4326C548.892 51.6611 548.477 51.987 548.189 52.4102C547.902 52.8333 547.758 53.3369 547.758 53.9209C547.758 54.5726 547.893 55.1143 548.164 55.5459C548.443 55.9775 548.883 56.3626 549.484 56.7012C550.094 57.0312 550.898 57.3783 551.896 57.7422C552.988 58.14 553.915 58.5632 554.677 59.0117C555.438 59.4518 556.018 59.9935 556.416 60.6367C556.814 61.2715 557.013 62.0798 557.013 63.0615ZM565.849 53.832C567.034 53.832 568.049 54.0944 568.896 54.6191C569.742 55.1439 570.389 55.8802 570.838 56.8281C571.286 57.7676 571.511 58.8678 571.511 60.1289V61.4365H561.9C561.926 63.07 562.332 64.3141 563.119 65.1689C563.906 66.0238 565.015 66.4512 566.445 66.4512C567.326 66.4512 568.104 66.3708 568.781 66.21C569.458 66.0492 570.161 65.8122 570.889 65.499V67.3525C570.186 67.6657 569.488 67.8942 568.794 68.0381C568.108 68.182 567.296 68.2539 566.356 68.2539C565.019 68.2539 563.851 67.9831 562.853 67.4414C561.862 66.8913 561.092 66.0872 560.542 65.0293C559.992 63.9714 559.717 62.6764 559.717 61.1445C559.717 59.6465 559.966 58.3516 560.466 57.2598C560.974 56.1595 561.685 55.3132 562.599 54.7207C563.521 54.1283 564.604 53.832 565.849 53.832ZM565.823 55.5586C564.698 55.5586 563.8 55.9268 563.132 56.6631C562.463 57.3994 562.065 58.4277 561.938 59.748H569.302C569.293 58.9186 569.162 58.1908 568.908 57.5645C568.663 56.9297 568.286 56.4388 567.778 56.0918C567.271 55.7363 566.619 55.5586 565.823 55.5586ZM580.296 53.8574C581.955 53.8574 583.186 54.2298 583.99 54.9746C584.794 55.7194 585.196 56.9085 585.196 58.542V68H583.66L583.254 65.9434H583.152C582.763 66.4512 582.357 66.8786 581.934 67.2256C581.51 67.5641 581.02 67.8223 580.461 68C579.911 68.1693 579.234 68.2539 578.43 68.2539C577.583 68.2539 576.83 68.1058 576.17 67.8096C575.518 67.5133 575.002 67.0648 574.621 66.4639C574.249 65.863 574.062 65.1012 574.062 64.1787C574.062 62.7907 574.613 61.7243 575.713 60.9795C576.813 60.2347 578.489 59.8285 580.74 59.7607L583.14 59.6592V58.8086C583.14 57.6068 582.882 56.7646 582.365 56.2822C581.849 55.7998 581.121 55.5586 580.182 55.5586C579.454 55.5586 578.76 55.6644 578.1 55.876C577.439 56.0876 576.813 56.3372 576.221 56.625L575.573 55.0254C576.2 54.7038 576.919 54.4287 577.731 54.2002C578.544 53.9717 579.399 53.8574 580.296 53.8574ZM583.114 61.1445L580.994 61.2334C579.259 61.3011 578.036 61.5846 577.325 62.084C576.614 62.5833 576.259 63.29 576.259 64.2041C576.259 64.9997 576.5 65.5879 576.982 65.9688C577.465 66.3496 578.104 66.54 578.899 66.54C580.135 66.54 581.146 66.1973 581.934 65.5117C582.721 64.8262 583.114 63.7979 583.114 62.4268V61.1445ZM595.86 53.832C596.14 53.832 596.432 53.849 596.736 53.8828C597.041 53.9082 597.312 53.9463 597.549 53.9971L597.282 55.9521C597.054 55.8929 596.8 55.8464 596.521 55.8125C596.241 55.7786 595.979 55.7617 595.733 55.7617C595.175 55.7617 594.646 55.876 594.146 56.1045C593.656 56.3245 593.224 56.6462 592.852 57.0693C592.479 57.484 592.187 57.9876 591.976 58.5801C591.764 59.1641 591.658 59.8158 591.658 60.5352V68H589.538V54.0859H591.29L591.519 56.6504H591.607C591.895 56.1341 592.242 55.6644 592.648 55.2412C593.055 54.8096 593.524 54.4668 594.058 54.2129C594.599 53.959 595.2 53.832 595.86 53.832ZM605.75 68.2539C604.497 68.2539 603.393 67.9958 602.437 67.4795C601.48 66.9632 600.735 66.1761 600.202 65.1182C599.669 64.0602 599.402 62.7272 599.402 61.1191C599.402 59.4349 599.682 58.0596 600.24 56.9932C600.807 55.9183 601.586 55.1227 602.576 54.6064C603.566 54.0902 604.692 53.832 605.953 53.832C606.647 53.832 607.316 53.904 607.959 54.0479C608.611 54.1833 609.144 54.3568 609.559 54.5684L608.924 56.333C608.501 56.1637 608.01 56.0114 607.451 55.876C606.901 55.7406 606.385 55.6729 605.902 55.6729C604.938 55.6729 604.133 55.8802 603.49 56.2949C602.855 56.7096 602.377 57.319 602.056 58.123C601.743 58.9271 601.586 59.9173 601.586 61.0938C601.586 62.2194 601.738 63.18 602.043 63.9756C602.356 64.7712 602.817 65.3805 603.427 65.8037C604.045 66.2184 604.815 66.4258 605.737 66.4258C606.474 66.4258 607.138 66.3496 607.73 66.1973C608.323 66.0365 608.86 65.8503 609.343 65.6387V67.5176C608.877 67.7546 608.357 67.9365 607.781 68.0635C607.214 68.1904 606.537 68.2539 605.75 68.2539ZM614.751 48.2461V54.1494C614.751 54.488 614.743 54.8307 614.726 55.1777C614.709 55.5163 614.679 55.8294 614.637 56.1172H614.776C615.064 55.6263 615.428 55.2158 615.868 54.8857C616.317 54.5472 616.825 54.2933 617.392 54.124C617.959 53.9463 618.56 53.8574 619.194 53.8574C620.312 53.8574 621.243 54.0352 621.987 54.3906C622.741 54.7461 623.303 55.2962 623.676 56.041C624.057 56.7858 624.247 57.7507 624.247 58.9355V68H622.165V59.0752C622.165 57.9157 621.898 57.0482 621.365 56.4727C620.84 55.8971 620.032 55.6094 618.94 55.6094C617.908 55.6094 617.083 55.8083 616.465 56.2061C615.855 56.5954 615.415 57.1709 615.145 57.9326C614.882 58.6943 614.751 59.6253 614.751 60.7256V68H612.644V48.2461H614.751Z" fill="black" fill-opacity="0.7"/>
<rect x="1333" y="61" width="1" height="9" transform="rotate(-180 1333 61)" fill="white"/>
<path d="M519.045 45C516.861 45 514.725 45.6478 512.909 46.8615C511.093 48.0752 509.677 49.8002 508.841 51.8185C508.005 53.8368 507.786 56.0576 508.212 58.2002C508.638 60.3428 509.69 62.3109 511.235 63.8557C512.78 65.4004 514.748 66.4524 516.891 66.8785C519.033 67.3047 521.254 67.086 523.272 66.25C525.291 65.414 527.016 63.9983 528.229 62.1819C529.443 60.3655 530.091 58.23 530.091 56.0454C530.091 53.116 528.927 50.3067 526.855 48.2353C524.784 46.164 521.975 45.0002 519.045 45Z" stroke="black" stroke-width="2.5" stroke-miterlimit="10"/>
<path d="M527.286 64.2861L535 72.0001" stroke="black" stroke-width="2.5" stroke-miterlimit="10" stroke-linecap="round"/>
<path d="M1332.5 60.5V50.2071L1342.79 60.5H1332.5Z" fill="white" stroke="black"/>
<rect x="1233.5" y="29.5" width="99" height="32.3333" rx="3.5" fill="white" stroke="black"/>
<path d="M1254.34 53V35.8672H1256.34V51.2188H1263.94V53H1254.34ZM1277.66 46.5547C1277.66 47.6094 1277.53 48.5508 1277.25 49.3789C1276.98 50.207 1276.59 50.9062 1276.07 51.4766C1275.55 52.0469 1274.93 52.4844 1274.2 52.7891C1273.47 53.0859 1272.64 53.2344 1271.72 53.2344C1270.86 53.2344 1270.07 53.0859 1269.36 52.7891C1268.64 52.4844 1268.03 52.0469 1267.5 51.4766C1266.99 50.9062 1266.59 50.207 1266.3 49.3789C1266.02 48.5508 1265.88 47.6094 1265.88 46.5547C1265.88 45.1484 1266.11 43.9531 1266.59 42.9688C1267.07 41.9766 1267.75 41.2227 1268.63 40.707C1269.52 40.1836 1270.58 39.9219 1271.8 39.9219C1272.98 39.9219 1274 40.1836 1274.88 40.707C1275.76 41.2305 1276.44 41.9883 1276.93 42.9805C1277.42 43.9648 1277.66 45.1562 1277.66 46.5547ZM1267.89 46.5547C1267.89 47.5859 1268.03 48.4805 1268.3 49.2383C1268.57 49.9961 1269 50.582 1269.57 50.9961C1270.14 51.4102 1270.87 51.6172 1271.77 51.6172C1272.66 51.6172 1273.39 51.4102 1273.96 50.9961C1274.54 50.582 1274.96 49.9961 1275.24 49.2383C1275.51 48.4805 1275.65 47.5859 1275.65 46.5547C1275.65 45.5312 1275.51 44.6484 1275.24 43.9062C1274.96 43.1562 1274.54 42.5781 1273.97 42.1719C1273.4 41.7656 1272.66 41.5625 1271.76 41.5625C1270.42 41.5625 1269.44 42.0039 1268.82 42.8867C1268.2 43.7695 1267.89 44.9922 1267.89 46.5547ZM1284.61 58.7656C1282.93 58.7656 1281.62 58.4492 1280.71 57.8164C1279.8 57.1914 1279.34 56.3125 1279.34 55.1797C1279.34 54.375 1279.59 53.6875 1280.1 53.1172C1280.62 52.5469 1281.33 52.168 1282.23 51.9805C1281.9 51.8242 1281.61 51.5898 1281.37 51.2773C1281.13 50.9648 1281.02 50.6055 1281.02 50.1992C1281.02 49.7305 1281.14 49.3203 1281.4 48.9688C1281.67 48.6094 1282.07 48.2656 1282.61 47.9375C1281.94 47.6641 1281.39 47.2031 1280.97 46.5547C1280.55 45.8984 1280.35 45.1367 1280.35 44.2695C1280.35 43.3477 1280.54 42.5625 1280.92 41.9141C1281.3 41.2578 1281.86 40.7578 1282.59 40.4141C1283.31 40.0703 1284.19 39.8984 1285.22 39.8984C1285.45 39.8984 1285.68 39.9102 1285.9 39.9336C1286.14 39.9492 1286.36 39.9766 1286.57 40.0156C1286.78 40.0469 1286.96 40.0859 1287.12 40.1328H1291.53V41.3867L1289.16 41.6797C1289.39 41.9844 1289.59 42.3516 1289.75 42.7812C1289.9 43.2109 1289.98 43.6875 1289.98 44.2109C1289.98 45.4922 1289.55 46.5117 1288.68 47.2695C1287.81 48.0195 1286.62 48.3945 1285.11 48.3945C1284.75 48.3945 1284.38 48.3633 1284 48.3008C1283.62 48.5117 1283.33 48.7461 1283.12 49.0039C1282.93 49.2617 1282.83 49.5586 1282.83 49.8945C1282.83 50.1445 1282.91 50.3438 1283.05 50.4922C1283.21 50.6406 1283.43 50.75 1283.72 50.8203C1284.01 50.8828 1284.36 50.9141 1284.77 50.9141H1287.03C1288.43 50.9141 1289.5 51.207 1290.24 51.793C1290.99 52.3789 1291.36 53.2344 1291.36 54.3594C1291.36 55.7812 1290.79 56.8711 1289.63 57.6289C1288.47 58.3867 1286.8 58.7656 1284.61 58.7656ZM1284.67 57.2422C1285.73 57.2422 1286.61 57.1328 1287.31 56.9141C1288.01 56.7031 1288.54 56.3945 1288.88 55.9883C1289.23 55.5898 1289.41 55.1133 1289.41 54.5586C1289.41 54.043 1289.29 53.6523 1289.05 53.3867C1288.82 53.1289 1288.48 52.957 1288.02 52.8711C1287.57 52.7773 1287.02 52.7305 1286.36 52.7305H1284.13C1283.55 52.7305 1283.05 52.8203 1282.62 53C1282.19 53.1797 1281.86 53.4453 1281.62 53.7969C1281.4 54.1484 1281.29 54.5859 1281.29 55.1094C1281.29 55.8047 1281.58 56.332 1282.16 56.6914C1282.75 57.0586 1283.59 57.2422 1284.67 57.2422ZM1285.18 46.9766C1286.11 46.9766 1286.8 46.7422 1287.27 46.2734C1287.74 45.8047 1287.98 45.1211 1287.98 44.2227C1287.98 43.2617 1287.74 42.543 1287.26 42.0664C1286.79 41.582 1286.08 41.3398 1285.15 41.3398C1284.26 41.3398 1283.57 41.5898 1283.09 42.0898C1282.61 42.582 1282.38 43.3047 1282.38 44.2578C1282.38 45.1328 1282.62 45.8047 1283.1 46.2734C1283.59 46.7422 1284.28 46.9766 1285.18 46.9766ZM1296 40.1562V53H1294.06V40.1562H1296ZM1295.05 35.3516C1295.38 35.3516 1295.65 35.457 1295.88 35.668C1296.11 35.8711 1296.23 36.1914 1296.23 36.6289C1296.23 37.0586 1296.11 37.3789 1295.88 37.5898C1295.65 37.8008 1295.38 37.9062 1295.05 37.9062C1294.72 37.9062 1294.44 37.8008 1294.21 37.5898C1293.99 37.3789 1293.88 37.0586 1293.88 36.6289C1293.88 36.1914 1293.99 35.8711 1294.21 35.668C1294.44 35.457 1294.72 35.3516 1295.05 35.3516ZM1306.21 39.9219C1307.73 39.9219 1308.89 40.2969 1309.67 41.0469C1310.45 41.7891 1310.84 42.9844 1310.84 44.6328V53H1308.92V44.7617C1308.92 43.6914 1308.67 42.8906 1308.18 42.3594C1307.7 41.8281 1306.95 41.5625 1305.94 41.5625C1304.52 41.5625 1303.52 41.9648 1302.94 42.7695C1302.36 43.5742 1302.07 44.7422 1302.07 46.2734V53H1300.13V40.1562H1301.7L1301.99 42.0078H1302.1C1302.37 41.5547 1302.72 41.1758 1303.14 40.8711C1303.56 40.5586 1304.04 40.3242 1304.56 40.168C1305.08 40.0039 1305.63 39.9219 1306.21 39.9219Z" fill="black"/>
<path d="M1380.45 28.003C1362.45 27.7599 1347.76 42.4515 1348 60.4476C1348.24 77.7068 1362.3 91.76 1379.56 92C1397.55 92.2462 1412.24 77.5545 1412 59.5584C1411.76 42.2962 1397.71 28.243 1380.45 28.003ZM1399.9 78.3468C1399.83 78.4131 1399.76 78.4651 1399.68 78.4991C1399.59 78.5331 1399.5 78.5482 1399.41 78.5435C1399.32 78.5388 1399.23 78.5144 1399.15 78.4719C1399.07 78.4294 1399.01 78.3699 1398.95 78.2976C1397.58 76.4973 1395.89 74.9559 1393.97 73.7455C1390.06 71.2317 1385.1 69.8472 1380 69.8472C1374.91 69.8472 1369.95 71.2317 1366.03 73.7455C1364.11 74.9554 1362.43 76.4962 1361.05 78.296C1361 78.3683 1360.93 78.4278 1360.85 78.4703C1360.77 78.5128 1360.68 78.5373 1360.59 78.542C1360.5 78.5467 1360.41 78.5315 1360.33 78.4975C1360.24 78.4635 1360.17 78.4115 1360.11 78.3453C1355.59 73.4722 1353.04 67.1047 1352.93 60.463C1352.68 45.4929 1364.96 32.9627 1379.94 32.9258C1394.91 32.8889 1407.08 45.0499 1407.08 60.0015C1407.08 66.8034 1404.52 73.356 1399.9 78.3468V78.3468Z" fill="black"/>
<path d="M1380 42.7715C1376.97 42.7715 1374.22 43.9084 1372.28 45.9744C1370.33 48.0405 1369.35 50.8973 1369.57 53.9633C1370.02 60.0015 1374.7 64.9243 1380 64.9243C1385.31 64.9243 1389.97 60.0015 1390.43 53.9648C1390.66 50.928 1389.69 48.0974 1387.71 45.9929C1385.75 43.916 1383.02 42.7715 1380 42.7715Z" fill="black"/>
<path d="M26.3059 101.786L20.0348 81.3512H19.8745C19.8982 81.8382 19.9339 82.5745 19.9814 83.5603C20.0408 84.5343 20.0942 85.5735 20.1417 86.6781C20.1892 87.7826 20.213 88.7803 20.213 89.6711V101.786H15.2781V75.7393H22.7962L28.9604 95.6571H29.0673L35.6056 75.7393H43.1238V101.786H37.9751V89.4573C37.9751 88.6378 37.987 87.6935 38.0107 86.6246C38.0463 85.5557 38.0879 84.5402 38.1354 83.5782C38.1829 82.6042 38.2186 81.8738 38.2423 81.3868H38.082L31.3655 101.786H26.3059ZM67.3707 91.7911C67.3707 93.4539 67.1451 94.9267 66.6937 96.2094C66.2543 97.4921 65.607 98.5788 64.7518 99.4696C63.9086 100.349 62.8872 101.014 61.6876 101.465C60.4999 101.916 59.1578 102.142 57.6613 102.142C56.2598 102.142 54.9711 101.916 53.7953 101.465C52.6313 101.014 51.6158 100.349 50.7488 99.4696C49.8937 98.5788 49.2286 97.4921 48.7535 96.2094C48.2903 94.9267 48.0587 93.4539 48.0587 91.7911C48.0587 89.582 48.4506 87.7114 49.2345 86.1792C50.0184 84.6471 51.1348 83.4831 52.5838 82.6874C54.0328 81.8916 55.7609 81.4937 57.7681 81.4937C59.6328 81.4937 61.2838 81.8916 62.7209 82.6874C64.1699 83.4831 65.3041 84.6471 66.1236 86.1792C66.955 87.7114 67.3707 89.582 67.3707 91.7911ZM53.5993 91.7911C53.5993 93.0976 53.7418 94.1962 54.0269 95.087C54.3119 95.9778 54.7573 96.6488 55.363 97.1002C55.9688 97.5515 56.7586 97.7771 57.7325 97.7771C58.6946 97.7771 59.4725 97.5515 60.0664 97.1002C60.6721 96.6488 61.1115 95.9778 61.3847 95.087C61.6698 94.1962 61.8123 93.0976 61.8123 91.7911C61.8123 90.4728 61.6698 89.3801 61.3847 88.5131C61.1115 87.6342 60.6721 86.975 60.0664 86.5355C59.4606 86.0961 58.6708 85.8764 57.6969 85.8764C56.2598 85.8764 55.2146 86.3693 54.5614 87.355C53.92 88.3408 53.5993 89.8195 53.5993 91.7911ZM77.294 74.0646V80.5139C77.294 81.2621 77.2702 82.0044 77.2227 82.7408C77.1871 83.4772 77.1396 84.0473 77.0802 84.4511H77.294C77.8166 83.6316 78.5292 82.9368 79.4319 82.3667C80.3345 81.7847 81.5044 81.4937 82.9415 81.4937C85.1744 81.4937 86.9857 82.3667 88.3753 84.1126C89.7649 85.8585 90.4597 88.418 90.4597 91.7911C90.4597 94.0596 90.139 95.9659 89.4976 97.5099C88.8563 99.042 87.9596 100.2 86.8075 100.984C85.6554 101.756 84.3193 102.142 82.799 102.142C81.3381 102.142 80.1861 101.881 79.3428 101.358C78.4995 100.835 77.8166 100.248 77.294 99.5943H76.9199L76.0113 101.786H71.8602V74.0646H77.294ZM81.1956 85.8407C80.2454 85.8407 79.4912 86.0367 78.933 86.4286C78.3748 86.8206 77.965 87.4085 77.7038 88.1924C77.4543 88.9763 77.3177 89.968 77.294 91.1676V91.7555C77.294 93.6914 77.579 95.1761 78.1491 96.2094C78.7192 97.2308 79.7585 97.7415 81.2669 97.7415C82.3833 97.7415 83.2681 97.2249 83.9214 96.1916C84.5865 95.1583 84.919 93.6677 84.919 91.7199C84.919 89.772 84.5865 88.3052 83.9214 87.3194C83.2563 86.3336 82.3477 85.8407 81.1956 85.8407ZM100.383 101.786H94.9492V74.0646H100.383V101.786ZM103.251 81.8679H109.202L112.961 93.0738C113.079 93.4302 113.18 93.7924 113.264 94.1606C113.347 94.5288 113.418 94.9088 113.477 95.3008C113.537 95.6927 113.584 96.1025 113.62 96.5301H113.727C113.798 95.8887 113.893 95.2889 114.012 94.7307C114.142 94.1725 114.303 93.6202 114.493 93.0738L118.181 81.8679H124.006L115.58 104.333C115.069 105.711 114.404 106.857 113.584 107.772C112.765 108.698 111.821 109.393 110.752 109.856C109.695 110.319 108.531 110.551 107.26 110.551C106.642 110.551 106.108 110.515 105.656 110.444C105.205 110.385 104.819 110.319 104.498 110.248V105.937C104.748 105.996 105.062 106.049 105.443 106.097C105.823 106.145 106.221 106.168 106.636 106.168C107.396 106.168 108.05 106.008 108.596 105.687C109.142 105.367 109.6 104.933 109.968 104.387C110.336 103.852 110.627 103.264 110.841 102.623L111.161 101.643L103.251 81.8679Z" fill="black"/>
<path d="M143.333 94.5525C143.333 96.0965 142.959 97.4387 142.211 98.5788C141.463 99.719 140.37 100.598 138.933 101.216C137.508 101.833 135.774 102.142 133.731 102.142C132.828 102.142 131.943 102.083 131.076 101.964C130.221 101.845 129.396 101.673 128.6 101.447C127.816 101.21 127.068 100.919 126.355 100.574V95.4433C127.59 95.9897 128.873 96.4825 130.203 96.922C131.534 97.3614 132.852 97.5812 134.158 97.5812C135.061 97.5812 135.786 97.4624 136.332 97.2249C136.89 96.9873 137.294 96.6607 137.543 96.245C137.793 95.8293 137.917 95.3542 137.917 94.8198C137.917 94.1665 137.698 93.6083 137.258 93.1451C136.819 92.6819 136.213 92.2484 135.441 91.8446C134.681 91.4407 133.82 91.0072 132.858 90.544C132.252 90.259 131.593 89.9145 130.88 89.5107C130.168 89.095 129.491 88.5903 128.849 87.9964C128.208 87.4026 127.679 86.684 127.264 85.8407C126.86 84.9856 126.658 83.9642 126.658 82.7765C126.658 81.2206 127.014 79.8903 127.727 78.7858C128.44 77.6812 129.455 76.8379 130.773 76.256C132.104 75.6621 133.671 75.3652 135.477 75.3652C136.831 75.3652 138.119 75.5255 139.343 75.8462C140.578 76.155 141.867 76.6063 143.209 77.2002L141.427 81.4937C140.228 81.0068 139.153 80.6326 138.203 80.3714C137.252 80.0982 136.284 79.9616 135.299 79.9616C134.61 79.9616 134.022 80.0744 133.535 80.3001C133.048 80.5139 132.68 80.8227 132.43 81.2265C132.181 81.6184 132.056 82.0757 132.056 82.5983C132.056 83.2159 132.234 83.7385 132.591 84.1661C132.959 84.5818 133.505 84.9856 134.23 85.3775C134.966 85.7695 135.881 86.2267 136.973 86.7493C138.303 87.3788 139.438 88.038 140.376 88.7268C141.326 89.4038 142.057 90.2055 142.567 91.1319C143.078 92.0465 143.333 93.1867 143.333 94.5525ZM153.061 74.0646V79.7122C153.061 80.698 153.025 81.6363 152.954 82.527C152.894 83.4178 152.847 84.0473 152.811 84.4155H153.096C153.524 83.7266 154.029 83.1684 154.611 82.7408C155.205 82.3132 155.858 81.9985 156.57 81.7966C157.283 81.5947 158.049 81.4937 158.869 81.4937C160.306 81.4937 161.559 81.7491 162.628 82.2598C163.697 82.7586 164.528 83.5485 165.122 84.6293C165.716 85.6982 166.013 87.0878 166.013 88.7981V101.786H160.579V90.1521C160.579 88.7268 160.318 87.652 159.795 86.9275C159.272 86.203 158.465 85.8407 157.372 85.8407C156.279 85.8407 155.418 86.0961 154.789 86.6068C154.159 87.1056 153.714 87.8479 153.453 88.8337C153.191 89.8077 153.061 91.0013 153.061 92.4147V101.786H147.627V74.0646H153.061ZM189.707 91.7911C189.707 93.4539 189.482 94.9267 189.03 96.2094C188.591 97.4921 187.944 98.5788 187.088 99.4696C186.245 100.349 185.224 101.014 184.024 101.465C182.836 101.916 181.494 102.142 179.998 102.142C178.596 102.142 177.308 101.916 176.132 101.465C174.968 101.014 173.952 100.349 173.085 99.4696C172.23 98.5788 171.565 97.4921 171.09 96.2094C170.627 94.9267 170.395 93.4539 170.395 91.7911C170.395 89.582 170.787 87.7114 171.571 86.1792C172.355 84.6471 173.471 83.4831 174.92 82.6874C176.369 81.8916 178.098 81.4937 180.105 81.4937C181.969 81.4937 183.62 81.8916 185.057 82.6874C186.506 83.4831 187.641 84.6471 188.46 86.1792C189.292 87.7114 189.707 89.582 189.707 91.7911ZM175.936 91.7911C175.936 93.0976 176.078 94.1962 176.363 95.087C176.649 95.9778 177.094 96.6488 177.7 97.1002C178.305 97.5515 179.095 97.7771 180.069 97.7771C181.031 97.7771 181.809 97.5515 182.403 97.1002C183.009 96.6488 183.448 95.9778 183.721 95.087C184.006 94.1962 184.149 93.0976 184.149 91.7911C184.149 90.4728 184.006 89.3801 183.721 88.5131C183.448 87.6342 183.009 86.975 182.403 86.5355C181.797 86.0961 181.007 85.8764 180.033 85.8764C178.596 85.8764 177.551 86.3693 176.898 87.355C176.257 88.3408 175.936 89.8195 175.936 91.7911ZM205.278 81.4937C207.523 81.4937 209.334 82.3667 210.712 84.1126C212.101 85.8585 212.796 88.418 212.796 91.7911C212.796 94.0478 212.47 95.9481 211.816 97.4921C211.163 99.0242 210.261 100.182 209.108 100.966C207.956 101.75 206.632 102.142 205.136 102.142C204.174 102.142 203.348 102.023 202.659 101.786C201.97 101.536 201.382 101.221 200.895 100.841C200.409 100.449 199.987 100.034 199.631 99.5943H199.346C199.441 100.069 199.512 100.556 199.559 101.055C199.607 101.554 199.631 102.041 199.631 102.516V110.551H194.197V81.8679H198.615L199.381 84.4511H199.631C199.987 83.9166 200.42 83.4238 200.931 82.9724C201.442 82.5211 202.053 82.1648 202.766 81.9035C203.491 81.6303 204.328 81.4937 205.278 81.4937ZM203.532 85.8407C202.582 85.8407 201.828 86.0367 201.27 86.4286C200.711 86.8206 200.302 87.4085 200.04 88.1924C199.791 88.9763 199.654 89.968 199.631 91.1676V91.7555C199.631 93.0382 199.749 94.125 199.987 95.0157C200.236 95.9065 200.646 96.5835 201.216 97.0467C201.798 97.5099 202.594 97.7415 203.603 97.7415C204.435 97.7415 205.118 97.5099 205.652 97.0467C206.187 96.5835 206.585 95.9065 206.846 95.0157C207.119 94.1131 207.256 93.0145 207.256 91.7199C207.256 89.772 206.953 88.3052 206.347 87.3194C205.741 86.3336 204.803 85.8407 203.532 85.8407Z" fill="black"/>
<path d="M139.489 58.0806H138.12C137.999 58.0806 137.883 58.0325 137.798 57.947C137.712 57.8614 137.664 57.7454 137.664 57.6245V38.1853C137.665 38.1127 137.649 38.041 137.617 37.976C137.584 37.911 137.537 37.8546 137.479 37.8116C137.42 37.7685 137.352 37.7401 137.281 37.7285C137.209 37.717 137.136 37.7227 137.067 37.7452C136.02 38.074 134.934 38.2574 133.838 38.2902C133.703 38.2902 133.575 38.2959 133.45 38.2959C131.341 38.3009 129.267 37.7654 127.424 36.7407C127.285 36.6631 127.128 36.6224 126.968 36.6224C126.808 36.6224 126.651 36.6631 126.512 36.7407C124.67 37.7654 122.595 38.3009 120.487 38.2959C118.391 38.2988 116.33 37.757 114.506 36.7236C114.365 36.6439 114.206 36.6021 114.044 36.6021C113.883 36.6021 113.724 36.6439 113.583 36.7236C111.732 37.7609 109.644 38.3029 107.522 38.297C105.412 38.2984 103.337 37.7481 101.505 36.7008C101.363 36.6201 101.203 36.5777 101.04 36.5777C100.877 36.5777 100.717 36.6201 100.575 36.7008C98.7426 37.7481 96.6684 38.2984 94.558 38.297C94.4337 38.297 94.3083 38.297 94.1737 38.2913H94.1669C93.0321 38.2573 91.908 38.0619 90.8284 37.711C90.76 37.6889 90.6874 37.6832 90.6164 37.6945C90.5455 37.7058 90.4782 37.7337 90.42 37.776C90.3619 37.8182 90.3146 37.8736 90.2819 37.9376C90.2493 38.0016 90.2322 38.0724 90.2321 38.1442V57.6245C90.2321 57.7454 90.184 57.8614 90.0985 57.947C90.0129 58.0325 89.8969 58.0806 89.776 58.0806H88.4648C87.4796 58.0806 86.629 58.8376 86.5857 59.8228C86.5746 60.069 86.6135 60.3149 86.7001 60.5456C86.7866 60.7764 86.9191 60.9872 87.0893 61.1653C87.2596 61.3435 87.4642 61.4853 87.6908 61.5822C87.9174 61.6791 88.1613 61.7291 88.4077 61.7292H139.431C140.417 61.7292 141.267 60.9721 141.311 59.987C141.322 59.7408 141.283 59.4949 141.196 59.2641C141.11 59.0334 140.977 58.8226 140.807 58.6444C140.637 58.4662 140.432 58.3244 140.205 58.2275C139.979 58.1306 139.735 58.0806 139.489 58.0806V58.0806ZM110.299 50.3272C110.299 50.4482 110.251 50.5642 110.166 50.6497C110.08 50.7353 109.964 50.7833 109.843 50.7833H99.8097C99.6887 50.7833 99.5727 50.7353 99.4872 50.6497C99.4017 50.5642 99.3536 50.4482 99.3536 50.3272V43.03C99.3536 42.6671 99.4978 42.3191 99.7544 42.0625C100.011 41.8059 100.359 41.6617 100.722 41.6617H108.931C109.294 41.6617 109.642 41.8059 109.899 42.0625C110.155 42.3191 110.299 42.6671 110.299 43.03V50.3272ZM128.087 58.0806H119.877C119.756 58.0806 119.64 58.0325 119.555 57.947C119.469 57.8614 119.421 57.7454 119.421 57.6245V43.03C119.421 42.6671 119.565 42.3191 119.822 42.0625C120.078 41.8059 120.426 41.6617 120.789 41.6617H127.174C127.537 41.6617 127.885 41.8059 128.142 42.0625C128.398 42.3191 128.543 42.6671 128.543 43.03V57.6245C128.543 57.7454 128.495 57.8614 128.409 57.947C128.324 58.0325 128.208 58.0806 128.087 58.0806ZM140.922 26.4151L136.028 15.1853C134.746 12.4294 131.82 10.6484 128.571 10.6484H99.3194C96.071 10.6484 93.1441 12.4294 91.8625 15.1853L86.9688 26.4151C85.9426 28.6282 87.2983 30.9006 87.2995 30.9017L87.3314 30.953C87.3873 31.042 87.4865 31.1811 87.5469 31.27C87.5526 31.2768 87.5572 31.2848 87.5629 31.2928L88.133 31.9826C88.1543 32.0087 88.1771 32.0334 88.2014 32.0567L88.7715 32.6075L88.8194 32.6485C89.1542 32.9355 89.5123 33.194 89.89 33.4216V33.4273C91.1309 34.1789 92.5446 34.598 93.9947 34.6438H94.2763C96.4704 34.6479 98.5845 33.8205 100.193 32.3281L100.23 32.2928C100.398 32.1345 100.62 32.0464 100.851 32.0464C101.082 32.0464 101.304 32.1345 101.472 32.2928L101.51 32.3281C103.135 33.8179 105.26 34.6444 107.465 34.6444C109.67 34.6444 111.795 33.8179 113.42 32.3281C113.589 32.172 113.81 32.0853 114.04 32.0853C114.27 32.0853 114.491 32.172 114.66 32.3281C116.28 33.8132 118.397 34.6392 120.596 34.6441C122.794 34.6489 124.914 33.8323 126.542 32.3543C126.708 32.2005 126.926 32.115 127.152 32.115C127.379 32.115 127.597 32.2005 127.763 32.3543C129.392 33.8413 131.522 34.6589 133.727 34.6438H134.011C135.425 34.5911 136.8 34.1706 138.002 33.4238C138.11 33.3588 138.214 33.2904 138.319 33.222C139.129 32.6757 139.834 31.9878 140.401 31.1913L140.599 30.8915C140.619 30.8611 140.637 30.8291 140.654 30.7957C140.843 30.4103 141.858 28.4286 140.922 26.4151V26.4151Z" fill="#B6EB7A"/>
</svg>
