<svg width="180" height="32" viewBox="0 0 180 32" fill="none" xmlns="http://www.w3.org/2000/svg">
<rect width="180" height="32" rx="4" fill="#B6EB7A"/>
<path d="M65.0752 11.2334C64.5537 11.2334 64.0908 11.3359 63.6865 11.541C63.2881 11.7402 62.9512 12.0303 62.6758 12.4111C62.4062 12.792 62.2012 13.252 62.0605 13.791C61.9199 14.3301 61.8496 14.9365 61.8496 15.6104C61.8496 16.5186 61.9609 17.2949 62.1836 17.9395C62.4121 18.5781 62.7637 19.0674 63.2383 19.4072C63.7129 19.7412 64.3252 19.9082 65.0752 19.9082C65.5967 19.9082 66.1182 19.8496 66.6396 19.7324C67.167 19.6152 67.7383 19.4482 68.3535 19.2314V21.5166C67.7852 21.751 67.2256 21.918 66.6748 22.0176C66.124 22.123 65.5059 22.1758 64.8203 22.1758C63.4961 22.1758 62.4062 21.9033 61.5508 21.3584C60.7012 20.8076 60.0713 20.04 59.6611 19.0557C59.251 18.0654 59.0459 16.9111 59.0459 15.5928C59.0459 14.6201 59.1777 13.7295 59.4414 12.9209C59.7051 12.1123 60.0918 11.4121 60.6016 10.8203C61.1113 10.2285 61.7412 9.77148 62.4912 9.44922C63.2412 9.12695 64.1025 8.96582 65.0752 8.96582C65.7139 8.96582 66.3525 9.04785 66.9912 9.21191C67.6357 9.37012 68.251 9.58984 68.8369 9.87109L67.958 12.0859C67.4775 11.8574 66.9941 11.6582 66.5078 11.4883C66.0215 11.3184 65.5439 11.2334 65.0752 11.2334ZM74.9365 11.9893C75.8447 11.9893 76.627 12.165 77.2832 12.5166C77.9395 12.8623 78.4463 13.3662 78.8037 14.0283C79.1611 14.6904 79.3398 15.499 79.3398 16.4541V17.7549H73.0029C73.0322 18.5107 73.2578 19.1055 73.6797 19.5391C74.1074 19.9668 74.6992 20.1807 75.4551 20.1807C76.082 20.1807 76.6562 20.1162 77.1777 19.9873C77.6992 19.8584 78.2354 19.665 78.7861 19.4072V21.4814C78.2998 21.7217 77.79 21.8975 77.2568 22.0088C76.7295 22.1201 76.0879 22.1758 75.332 22.1758C74.3477 22.1758 73.4746 21.9941 72.7129 21.6309C71.957 21.2676 71.3623 20.7139 70.9287 19.9697C70.501 19.2256 70.2871 18.2881 70.2871 17.1572C70.2871 16.0088 70.4805 15.0537 70.8672 14.292C71.2598 13.5244 71.8047 12.9502 72.502 12.5693C73.1992 12.1826 74.0107 11.9893 74.9365 11.9893ZM74.9541 13.8965C74.4326 13.8965 73.999 14.0635 73.6533 14.3975C73.3135 14.7314 73.1172 15.2559 73.0645 15.9707H76.8262C76.8203 15.5723 76.7471 15.2178 76.6064 14.9072C76.4717 14.5967 76.2666 14.3506 75.9912 14.1689C75.7217 13.9873 75.376 13.8965 74.9541 13.8965ZM84.2002 22H81.5195V8.32422H84.2002V22ZM96.0391 12.1738V22H93.9824L93.6221 20.7432H93.4814C93.2705 21.0771 93.0068 21.3496 92.6904 21.5605C92.374 21.7715 92.0254 21.9268 91.6445 22.0264C91.2637 22.126 90.8682 22.1758 90.458 22.1758C89.7549 22.1758 89.1426 22.0527 88.6211 21.8066C88.0996 21.5547 87.6924 21.165 87.3994 20.6377C87.1123 20.1104 86.9688 19.4248 86.9688 18.5811V12.1738H89.6494V17.9131C89.6494 18.6162 89.7754 19.1465 90.0273 19.5039C90.2793 19.8613 90.6807 20.04 91.2314 20.04C91.7764 20.04 92.2041 19.917 92.5146 19.6709C92.8252 19.4189 93.042 19.0527 93.165 18.5723C93.2939 18.0859 93.3584 17.4941 93.3584 16.7969V12.1738H96.0391ZM101.532 22H98.8516V8.32422H101.532V22ZM108.379 11.9717C109.697 11.9717 110.708 12.2588 111.411 12.833C112.114 13.4072 112.466 14.2803 112.466 15.4521V22H110.594L110.075 20.6641H110.005C109.724 21.0156 109.437 21.3027 109.144 21.5254C108.851 21.748 108.514 21.9121 108.133 22.0176C107.752 22.123 107.289 22.1758 106.744 22.1758C106.164 22.1758 105.643 22.0645 105.18 21.8418C104.723 21.6191 104.362 21.2793 104.099 20.8223C103.835 20.3594 103.703 19.7734 103.703 19.0645C103.703 18.0215 104.069 17.2539 104.802 16.7617C105.534 16.2637 106.633 15.9883 108.098 15.9355L109.803 15.8828V15.4521C109.803 14.9365 109.668 14.5586 109.398 14.3184C109.129 14.0781 108.754 13.958 108.273 13.958C107.799 13.958 107.333 14.0254 106.876 14.1602C106.419 14.2949 105.962 14.4648 105.505 14.6699L104.617 12.8594C105.139 12.584 105.722 12.3672 106.366 12.209C107.017 12.0508 107.688 11.9717 108.379 11.9717ZM109.803 17.4473L108.766 17.4824C107.898 17.5059 107.295 17.6611 106.955 17.9482C106.621 18.2354 106.454 18.6133 106.454 19.082C106.454 19.4922 106.574 19.7852 106.814 19.9609C107.055 20.1309 107.368 20.2158 107.755 20.2158C108.329 20.2158 108.812 20.0459 109.205 19.7061C109.604 19.3662 109.803 18.8828 109.803 18.2559V17.4473ZM120.719 11.9893C120.854 11.9893 121.009 11.998 121.185 12.0156C121.366 12.0273 121.513 12.0449 121.624 12.0684L121.422 14.582C121.334 14.5527 121.208 14.5322 121.044 14.5205C120.886 14.5029 120.748 14.4941 120.631 14.4941C120.285 14.4941 119.948 14.5381 119.62 14.626C119.298 14.7139 119.008 14.8574 118.75 15.0566C118.492 15.25 118.287 15.5078 118.135 15.8301C117.988 16.1465 117.915 16.5361 117.915 16.999V22H115.234V12.1738H117.265L117.66 13.8262H117.792C117.985 13.4922 118.226 13.1875 118.513 12.9121C118.806 12.6309 119.137 12.4082 119.506 12.2441C119.881 12.0742 120.285 11.9893 120.719 11.9893Z" fill="black"/>
</svg>
