<svg width="180" height="32" viewBox="0 0 180 32" fill="none" xmlns="http://www.w3.org/2000/svg">
<rect width="180" height="32" rx="4" fill="#B6EB7A"/>
<path d="M41.0752 11.2334C40.5537 11.2334 40.0908 11.3359 39.6865 11.541C39.2881 11.7402 38.9512 12.0303 38.6758 12.4111C38.4062 12.792 38.2012 13.252 38.0605 13.791C37.9199 14.3301 37.8496 14.9365 37.8496 15.6104C37.8496 16.5186 37.9609 17.2949 38.1836 17.9395C38.4121 18.5781 38.7637 19.0674 39.2383 19.4072C39.7129 19.7412 40.3252 19.9082 41.0752 19.9082C41.5967 19.9082 42.1182 19.8496 42.6396 19.7324C43.167 19.6152 43.7383 19.4482 44.3535 19.2314V21.5166C43.7852 21.751 43.2256 21.918 42.6748 22.0176C42.124 22.123 41.5059 22.1758 40.8203 22.1758C39.4961 22.1758 38.4062 21.9033 37.5508 21.3584C36.7012 20.8076 36.0713 20.04 35.6611 19.0557C35.251 18.0654 35.0459 16.9111 35.0459 15.5928C35.0459 14.6201 35.1777 13.7295 35.4414 12.9209C35.7051 12.1123 36.0918 11.4121 36.6016 10.8203C37.1113 10.2285 37.7412 9.77148 38.4912 9.44922C39.2412 9.12695 40.1025 8.96582 41.0752 8.96582C41.7139 8.96582 42.3525 9.04785 42.9912 9.21191C43.6357 9.37012 44.251 9.58984 44.8369 9.87109L43.958 12.0859C43.4775 11.8574 42.9941 11.6582 42.5078 11.4883C42.0215 11.3184 41.5439 11.2334 41.0752 11.2334ZM55.8145 17.0693C55.8145 17.8896 55.7031 18.6162 55.4805 19.249C55.2637 19.8818 54.9443 20.418 54.5225 20.8574C54.1064 21.291 53.6025 21.6191 53.0107 21.8418C52.4248 22.0645 51.7627 22.1758 51.0244 22.1758C50.333 22.1758 49.6973 22.0645 49.1172 21.8418C48.543 21.6191 48.042 21.291 47.6143 20.8574C47.1924 20.418 46.8643 19.8818 46.6299 19.249C46.4014 18.6162 46.2871 17.8896 46.2871 17.0693C46.2871 15.9795 46.4805 15.0566 46.8672 14.3008C47.2539 13.5449 47.8047 12.9707 48.5195 12.5781C49.2344 12.1855 50.0869 11.9893 51.0771 11.9893C51.9971 11.9893 52.8115 12.1855 53.5205 12.5781C54.2354 12.9707 54.7949 13.5449 55.1992 14.3008C55.6094 15.0566 55.8145 15.9795 55.8145 17.0693ZM49.0205 17.0693C49.0205 17.7139 49.0908 18.2559 49.2314 18.6953C49.3721 19.1348 49.5918 19.4658 49.8906 19.6885C50.1895 19.9111 50.5791 20.0225 51.0596 20.0225C51.5342 20.0225 51.918 19.9111 52.2109 19.6885C52.5098 19.4658 52.7266 19.1348 52.8613 18.6953C53.002 18.2559 53.0723 17.7139 53.0723 17.0693C53.0723 16.4189 53.002 15.8799 52.8613 15.4521C52.7266 15.0186 52.5098 14.6934 52.2109 14.4766C51.9121 14.2598 51.5225 14.1514 51.042 14.1514C50.333 14.1514 49.8174 14.3945 49.4951 14.8809C49.1787 15.3672 49.0205 16.0967 49.0205 17.0693ZM69.5693 11.9893C70.6826 11.9893 71.5234 12.2764 72.0918 12.8506C72.666 13.4189 72.9531 14.333 72.9531 15.5928V22H70.2637V16.2607C70.2637 15.5576 70.1436 15.0273 69.9033 14.6699C69.6631 14.3125 69.291 14.1338 68.7871 14.1338C68.0781 14.1338 67.5742 14.3887 67.2754 14.8984C66.9766 15.4023 66.8271 16.126 66.8271 17.0693V22H64.1465V16.2607C64.1465 15.792 64.0938 15.3994 63.9883 15.083C63.8828 14.7666 63.7217 14.5293 63.5049 14.3711C63.2881 14.2129 63.0098 14.1338 62.6699 14.1338C62.1719 14.1338 61.7793 14.2598 61.4922 14.5117C61.2109 14.7578 61.0088 15.124 60.8857 15.6104C60.7686 16.0908 60.71 16.6797 60.71 17.377V22H58.0293V12.1738H60.0771L60.4375 13.4307H60.5869C60.7861 13.0908 61.0352 12.8154 61.334 12.6045C61.6387 12.3936 61.9727 12.2383 62.3359 12.1387C62.6992 12.0391 63.0684 11.9893 63.4434 11.9893C64.1641 11.9893 64.7734 12.1064 65.2715 12.3408C65.7754 12.5752 66.1621 12.9385 66.4316 13.4307H66.6689C66.9619 12.9268 67.375 12.5605 67.9082 12.332C68.4473 12.1035 69.001 11.9893 69.5693 11.9893ZM81.1797 11.9893C82.2871 11.9893 83.1807 12.4199 83.8604 13.2812C84.5459 14.1426 84.8887 15.4053 84.8887 17.0693C84.8887 18.1826 84.7275 19.1201 84.4053 19.8818C84.083 20.6377 83.6377 21.209 83.0693 21.5957C82.501 21.9824 81.8477 22.1758 81.1094 22.1758C80.6348 22.1758 80.2275 22.1172 79.8877 22C79.5479 21.877 79.2578 21.7217 79.0176 21.5342C78.7773 21.3408 78.5693 21.1357 78.3936 20.9189H78.2529C78.2998 21.1533 78.335 21.3936 78.3584 21.6396C78.3818 21.8857 78.3936 22.126 78.3936 22.3604V26.3242H75.7129V12.1738H77.8926L78.2705 13.4482H78.3936C78.5693 13.1846 78.7832 12.9414 79.0352 12.7188C79.2871 12.4961 79.5889 12.3203 79.9404 12.1914C80.2979 12.0566 80.7109 11.9893 81.1797 11.9893ZM80.3184 14.1338C79.8496 14.1338 79.4775 14.2305 79.2021 14.4238C78.9268 14.6172 78.7246 14.9072 78.5957 15.2939C78.4727 15.6807 78.4053 16.1699 78.3936 16.7617V17.0518C78.3936 17.6846 78.4521 18.2207 78.5693 18.6602C78.6924 19.0996 78.8945 19.4336 79.1758 19.6621C79.4629 19.8906 79.8555 20.0049 80.3535 20.0049C80.7637 20.0049 81.1006 19.8906 81.3643 19.6621C81.6279 19.4336 81.8242 19.0996 81.9531 18.6602C82.0879 18.2148 82.1553 17.6729 82.1553 17.0342C82.1553 16.0732 82.0059 15.3496 81.707 14.8633C81.4082 14.377 80.9453 14.1338 80.3184 14.1338ZM96.1211 12.1738V22H94.0645L93.7041 20.7432H93.5635C93.3525 21.0771 93.0889 21.3496 92.7725 21.5605C92.4561 21.7715 92.1074 21.9268 91.7266 22.0264C91.3457 22.126 90.9502 22.1758 90.54 22.1758C89.8369 22.1758 89.2246 22.0527 88.7031 21.8066C88.1816 21.5547 87.7744 21.165 87.4814 20.6377C87.1943 20.1104 87.0508 19.4248 87.0508 18.5811V12.1738H89.7314V17.9131C89.7314 18.6162 89.8574 19.1465 90.1094 19.5039C90.3613 19.8613 90.7627 20.04 91.3135 20.04C91.8584 20.04 92.2861 19.917 92.5967 19.6709C92.9072 19.4189 93.124 19.0527 93.2471 18.5723C93.376 18.0859 93.4404 17.4941 93.4404 16.7969V12.1738H96.1211ZM103.073 20.04C103.366 20.04 103.65 20.0107 103.926 19.9521C104.207 19.8936 104.485 19.8203 104.761 19.7324V21.7275C104.474 21.8564 104.116 21.9619 103.688 22.0439C103.267 22.1318 102.804 22.1758 102.3 22.1758C101.714 22.1758 101.187 22.082 100.718 21.8945C100.255 21.7012 99.8887 21.3701 99.6191 20.9014C99.3555 20.4268 99.2236 19.7676 99.2236 18.9238V14.1865H97.9404V13.0527L99.417 12.1562L100.19 10.082H101.904V12.1738H104.655V14.1865H101.904V18.9238C101.904 19.2988 102.01 19.5801 102.221 19.7676C102.438 19.9492 102.722 20.04 103.073 20.04ZM110.781 11.9717C112.1 11.9717 113.11 12.2588 113.813 12.833C114.517 13.4072 114.868 14.2803 114.868 15.4521V22H112.996L112.478 20.6641H112.407C112.126 21.0156 111.839 21.3027 111.546 21.5254C111.253 21.748 110.916 21.9121 110.535 22.0176C110.154 22.123 109.691 22.1758 109.146 22.1758C108.566 22.1758 108.045 22.0645 107.582 21.8418C107.125 21.6191 106.765 21.2793 106.501 20.8223C106.237 20.3594 106.105 19.7734 106.105 19.0645C106.105 18.0215 106.472 17.2539 107.204 16.7617C107.937 16.2637 109.035 15.9883 110.5 15.9355L112.205 15.8828V15.4521C112.205 14.9365 112.07 14.5586 111.801 14.3184C111.531 14.0781 111.156 13.958 110.676 13.958C110.201 13.958 109.735 14.0254 109.278 14.1602C108.821 14.2949 108.364 14.4648 107.907 14.6699L107.02 12.8594C107.541 12.584 108.124 12.3672 108.769 12.209C109.419 12.0508 110.09 11.9717 110.781 11.9717ZM112.205 17.4473L111.168 17.4824C110.301 17.5059 109.697 17.6611 109.357 17.9482C109.023 18.2354 108.856 18.6133 108.856 19.082C108.856 19.4922 108.977 19.7852 109.217 19.9609C109.457 20.1309 109.771 20.2158 110.157 20.2158C110.731 20.2158 111.215 20.0459 111.607 19.7061C112.006 19.3662 112.205 18.8828 112.205 18.2559V17.4473ZM120.748 22.1758C119.652 22.1758 118.759 21.748 118.067 20.8926C117.382 20.0312 117.039 18.7686 117.039 17.1045C117.039 15.4229 117.388 14.1514 118.085 13.29C118.782 12.4229 119.693 11.9893 120.818 11.9893C121.287 11.9893 121.7 12.0537 122.058 12.1826C122.415 12.3115 122.723 12.4844 122.98 12.7012C123.244 12.918 123.467 13.1611 123.648 13.4307H123.736C123.701 13.2432 123.657 12.9678 123.604 12.6045C123.558 12.2354 123.534 11.8574 123.534 11.4707V8.32422H126.224V22H124.167L123.648 20.7256H123.534C123.364 20.9951 123.15 21.2412 122.893 21.4639C122.641 21.6807 122.339 21.8535 121.987 21.9824C121.636 22.1113 121.223 22.1758 120.748 22.1758ZM121.688 20.04C122.421 20.04 122.937 19.8232 123.235 19.3896C123.54 18.9502 123.701 18.291 123.719 17.4121V17.1221C123.719 16.167 123.572 15.4375 123.279 14.9336C122.986 14.4238 122.441 14.1689 121.645 14.1689C121.053 14.1689 120.59 14.4238 120.256 14.9336C119.922 15.4434 119.755 16.1787 119.755 17.1396C119.755 18.1006 119.922 18.8242 120.256 19.3105C120.596 19.7969 121.073 20.04 121.688 20.04ZM137.957 17.0693C137.957 17.8896 137.846 18.6162 137.623 19.249C137.406 19.8818 137.087 20.418 136.665 20.8574C136.249 21.291 135.745 21.6191 135.153 21.8418C134.567 22.0645 133.905 22.1758 133.167 22.1758C132.476 22.1758 131.84 22.0645 131.26 21.8418C130.686 21.6191 130.185 21.291 129.757 20.8574C129.335 20.418 129.007 19.8818 128.772 19.249C128.544 18.6162 128.43 17.8896 128.43 17.0693C128.43 15.9795 128.623 15.0566 129.01 14.3008C129.396 13.5449 129.947 12.9707 130.662 12.5781C131.377 12.1855 132.229 11.9893 133.22 11.9893C134.14 11.9893 134.954 12.1855 135.663 12.5781C136.378 12.9707 136.938 13.5449 137.342 14.3008C137.752 15.0566 137.957 15.9795 137.957 17.0693ZM131.163 17.0693C131.163 17.7139 131.233 18.2559 131.374 18.6953C131.515 19.1348 131.734 19.4658 132.033 19.6885C132.332 19.9111 132.722 20.0225 133.202 20.0225C133.677 20.0225 134.061 19.9111 134.354 19.6885C134.652 19.4658 134.869 19.1348 135.004 18.6953C135.145 18.2559 135.215 17.7139 135.215 17.0693C135.215 16.4189 135.145 15.8799 135.004 15.4521C134.869 15.0186 134.652 14.6934 134.354 14.4766C134.055 14.2598 133.665 14.1514 133.185 14.1514C132.476 14.1514 131.96 14.3945 131.638 14.8809C131.321 15.3672 131.163 16.0967 131.163 17.0693ZM145.656 11.9893C145.791 11.9893 145.946 11.998 146.122 12.0156C146.304 12.0273 146.45 12.0449 146.562 12.0684L146.359 14.582C146.271 14.5527 146.146 14.5322 145.981 14.5205C145.823 14.5029 145.686 14.4941 145.568 14.4941C145.223 14.4941 144.886 14.5381 144.558 14.626C144.235 14.7139 143.945 14.8574 143.688 15.0566C143.43 15.25 143.225 15.5078 143.072 15.8301C142.926 16.1465 142.853 16.5361 142.853 16.999V22H140.172V12.1738H142.202L142.598 13.8262H142.729C142.923 13.4922 143.163 13.1875 143.45 12.9121C143.743 12.6309 144.074 12.4082 144.443 12.2441C144.818 12.0742 145.223 11.9893 145.656 11.9893Z" fill="black"/>
</svg>
