<svg width="100" height="40" viewBox="0 0 100 40" fill="none" xmlns="http://www.w3.org/2000/svg">
<rect width="100" height="40" rx="8" fill="#B6EB7A"/>
<path d="M28.517 28V10.5455H35.5057C36.7898 10.5455 37.8608 10.7358 38.7188 11.1165C39.5767 11.4972 40.2216 12.0256 40.6534 12.7017C41.0852 13.3722 41.3011 14.1449 41.3011 15.0199C41.3011 15.7017 41.1648 16.3011 40.892 16.8182C40.6193 17.3295 40.2443 17.75 39.767 18.0795C39.2955 18.4034 38.7557 18.6335 38.1477 18.7699V18.9403C38.8125 18.9687 39.4347 19.1562 40.0142 19.5028C40.5994 19.8494 41.0739 20.3352 41.4375 20.9602C41.8011 21.5795 41.983 22.3182 41.983 23.1761C41.983 24.1023 41.7528 24.929 41.2926 25.6562C40.8381 26.3778 40.1648 26.9489 39.2727 27.3693C38.3807 27.7898 37.2813 28 35.9744 28H28.517ZM32.2074 24.983H35.2159C36.2443 24.983 36.9943 24.7869 37.4659 24.3949C37.9375 23.9972 38.1733 23.4687 38.1733 22.8097C38.1733 22.3267 38.0568 21.9006 37.8239 21.5312C37.5909 21.1619 37.2585 20.8722 36.8267 20.6619C36.4006 20.4517 35.892 20.3466 35.3011 20.3466H32.2074V24.983ZM32.2074 17.8494H34.9432C35.4489 17.8494 35.8977 17.7614 36.2898 17.5852C36.6875 17.4034 37 17.1477 37.2273 16.8182C37.4602 16.4886 37.5767 16.0938 37.5767 15.6335C37.5767 15.0028 37.3523 14.4943 36.9034 14.108C36.4602 13.7216 35.8295 13.5284 35.0114 13.5284H32.2074V17.8494ZM52.7109 22.4261V14.9091H56.3416V28H52.8558V25.6222H52.7195C52.424 26.3892 51.9325 27.0057 51.245 27.4716C50.5632 27.9375 49.7308 28.1705 48.7479 28.1705C47.8729 28.1705 47.103 27.9716 46.4382 27.5739C45.7734 27.1761 45.2536 26.6108 44.8786 25.8778C44.5092 25.1449 44.3217 24.267 44.3161 23.2443V14.9091H47.9467V22.5966C47.9524 23.3693 48.1598 23.9801 48.5689 24.429C48.978 24.8778 49.5263 25.1023 50.2138 25.1023C50.6513 25.1023 51.0604 25.0028 51.4411 24.804C51.8217 24.5994 52.1286 24.2983 52.3615 23.9006C52.6001 23.5028 52.7166 23.0114 52.7109 22.4261ZM61.4872 32.9091C61.027 32.9091 60.5952 32.8722 60.1918 32.7983C59.794 32.7301 59.4645 32.642 59.2031 32.5341L60.0213 29.8239C60.4474 29.9545 60.831 30.0256 61.1719 30.0369C61.5185 30.0483 61.8168 29.9688 62.0668 29.7983C62.3224 29.6278 62.5298 29.3381 62.6889 28.929L62.902 28.375L58.206 14.9091H62.0241L64.7344 24.5227H64.8707L67.6065 14.9091H71.4503L66.3622 29.4148C66.1179 30.1193 65.7855 30.733 65.3651 31.2557C64.9503 31.7841 64.4247 32.1903 63.7884 32.4744C63.152 32.7642 62.3849 32.9091 61.4872 32.9091Z" fill="black"/>
</svg>
