<svg width="155" height="149" viewBox="0 0 155 149" fill="none" xmlns="http://www.w3.org/2000/svg">
<path fill-rule="evenodd" clip-rule="evenodd" d="M145.665 0.395555C144.247 0.821388 143.05 2.46806 142.371 4.92514C141.424 8.34931 140.329 16.8218 140.106 22.4347C139.826 29.4801 140.184 30.7839 142.695 31.8768C145.629 33.1539 148.735 31.9776 150.206 29.0331C152.083 25.2768 155.076 9.14639 154.633 5.18055C154.351 2.6568 153.661 1.83889 150.911 0.767222C148.566 -0.146945 147.679 -0.209445 145.665 0.395555ZM0.608796 28.9131C-0.0652037 29.6156 -0.194004 30.661 0.294796 31.4614C0.783196 32.2622 2.3184 32.7056 7.1588 33.4451C9.6684 33.8285 12.3004 34.3939 13.0072 34.7018C14.5424 35.3697 14.9408 36.4343 15.742 42.0085C16.0552 44.1856 18.0484 54.3106 20.1716 64.5085C27.8692 101.481 28.8552 107.914 28.954 121.8C29.0128 130.026 29.1252 131.636 29.7496 133.166C30.1492 134.147 30.8032 135.131 31.2024 135.354C32.4444 136.046 35.1992 135.803 39.0736 134.657C41.1228 134.051 42.8992 133.66 43.0216 133.788C43.144 133.915 42.97 134.458 42.6344 134.993C41.6036 136.639 41.11 139.772 41.5892 141.626C42.97 146.967 50.078 149.91 55.1416 147.237C58.6216 145.4 60.3836 142.417 60.3756 138.376C60.372 136.573 60.118 135.506 59.3664 134.136C58.8136 133.129 58.4488 132.215 58.5552 132.104C58.6616 131.993 65.4608 131.377 73.6648 130.734C81.8684 130.092 90.2612 129.431 92.3156 129.266L96.0508 128.967L94.9156 131.217C91.4468 138.092 96.068 146.209 103.427 146.166C107.737 146.141 111.976 141.6 111.976 137.008C111.976 135.191 111.196 132.95 109.825 130.827L108.495 128.769L110.934 128.482C112.275 128.324 113.599 127.998 113.876 127.759C114.629 127.108 114.5 125.019 113.68 124.576C112.86 124.133 95.5404 124.649 88.9804 125.312C86.5604 125.557 78.2804 126.226 70.5804 126.8C51.5508 128.217 42.2116 129.311 37.676 130.653C34.7236 131.527 33.8712 131.645 33.476 131.231C33.1144 130.853 32.9944 128.686 33.0328 123.216C33.0616 119.093 33.174 115.626 33.2828 115.513C33.3916 115.4 39.038 114.852 45.8304 114.296C52.6228 113.74 63.0404 112.819 68.9804 112.25C83.2732 110.881 94.9176 110.027 106.38 109.506C124.326 108.691 126.798 108.186 128.318 105.024C129.369 102.838 129.498 102.123 130.424 93.3535C131.478 83.3593 131.848 65.2501 131.21 54.8414C130.953 50.6476 130.649 46.8885 130.534 46.4872C129.876 44.1789 127.713 44.0693 79.3804 43.8889C55.4004 43.7993 32.244 43.596 27.9216 43.4368L20.0624 43.1472L19.4016 39.3489C19.038 37.2593 18.3628 34.7306 17.9012 33.7285C16.8428 31.431 15.1388 30.591 9.7328 29.6993C7.5588 29.341 5.0256 28.8701 4.1032 28.6531C1.8216 28.1164 1.3396 28.1522 0.608796 28.9131ZM140.521 37.4456C139.828 37.6643 138.703 38.506 138.021 39.3156C136.955 40.5806 136.78 41.1101 136.78 43.0814C136.78 47.6301 139.282 50.541 142.91 50.2147C146.174 49.9218 148.368 47.5856 148.693 44.0572C148.934 41.4439 148.09 39.4876 146.194 38.2672C144.65 37.2735 142.192 36.9172 140.521 37.4456ZM79.9804 48.046C103.19 48.1289 123.204 48.3289 124.454 48.4901L126.728 48.7835L127.049 51.5418C127.226 53.0589 127.37 60.9564 127.369 69.0918C127.368 81.7072 127.234 85.1326 126.459 92.3735C125.59 100.481 125.006 103.223 124.011 103.864C123.763 104.023 122.62 104.255 121.47 104.378L119.38 104.603L119.348 102.368C119.325 100.706 118.925 99.2497 117.788 96.6856L116.26 93.2376L117.22 92.1022C117.748 91.4777 119.125 89.9026 120.28 88.6018C122.601 85.9889 123.073 84.091 121.607 83.2731C120.267 82.5264 119.866 82.7635 116.875 86.071C113.501 89.8022 114.098 89.9851 110.721 84.1843L108.713 80.7347L111.544 77.3093C116.169 71.7118 119.223 68.4393 119.408 68.8835C120.483 71.4631 121.068 72.2272 122.055 72.346C122.832 72.4397 123.304 72.1989 123.757 71.4789C124.334 70.5622 124.318 70.2856 123.56 68.0164C123.108 66.6601 122.828 65.0576 122.939 64.4556C123.16 63.256 122.707 62.4981 121.18 61.5135C120.577 61.1247 119.177 58.8622 117.652 55.8139C115.688 51.8901 114.904 50.7022 114.146 50.5039C113.599 50.361 112.908 50.4747 112.575 50.7631C111.401 51.7785 111.916 53.7614 114.741 59.0918L117.501 64.3001L114.43 67.6335C112.742 69.4668 110.341 72.1856 109.095 73.6751L106.83 76.3835L105.508 73.2585C104.78 71.5397 103.62 68.9147 102.931 67.4251L101.677 64.7168L106.629 59.4726C109.352 56.5885 111.58 53.9297 111.58 53.5647C111.58 52.6168 110.473 51.5918 109.448 51.5918C108.887 51.5918 106.972 53.1618 104.11 55.9685L99.6468 60.3451L97.3136 56.0726C95.1748 52.1564 94.8724 51.7893 93.6832 51.6697C92.6312 51.5639 92.302 51.7322 91.9396 52.5606C91.5464 53.4593 91.7968 54.1801 94.028 58.5739L96.5636 63.5664L95.572 64.8322C95.0264 65.5285 92.3304 68.6422 89.5804 71.7514C83.7552 78.3381 84.746 78.4651 80.9048 70.6372L78.4296 65.5926L84.0048 59.6322C89.7724 53.4668 90.352 52.4551 88.952 50.9964C88.606 50.6364 88.0004 50.3418 87.6056 50.3418C87.2036 50.3418 84.7388 52.7214 81.9956 55.7585C79.3048 58.7376 76.9852 61.1747 76.8416 61.1739C76.698 61.1735 75.4704 58.736 74.1132 55.7572C71.792 50.6614 71.5784 50.3418 70.4932 50.3418C69.1324 50.3418 68.3748 51.0114 68.3952 52.196C68.4036 52.6656 69.548 55.5814 70.9384 58.6751L73.4668 64.3001L69.558 68.6751C63.9772 74.9218 62.4388 76.4076 62.0304 75.9464C61.5764 75.4339 56.3804 63.8843 56.3804 63.3876C56.3804 63.1797 58.6348 60.9118 61.3904 58.3476L66.4004 53.6856L65.0412 52.1406L63.6816 50.5956L62.39 51.7281C61.6792 52.351 59.75 54.1218 58.1028 55.6635C56.4556 57.2056 55.0292 58.4668 54.9328 58.4668C54.8364 58.4668 54.2436 56.9197 53.6148 55.0293C52.9864 53.1385 52.1776 51.1231 51.8172 50.5501C50.9668 49.1981 49.4096 49.1735 48.576 50.4985C48.0024 51.4106 48.0216 51.6664 48.8148 53.7276C49.2888 54.9593 50.0844 57.3235 50.5832 58.9818L51.49 61.9964L49.8352 63.5168C48.9252 64.3526 46.3404 66.9122 44.0912 69.2043C40.1672 73.2035 39.9872 73.3318 39.6404 72.3776C39.4416 71.831 38.5056 69.1747 37.56 66.4751L35.8412 61.5668L37.2628 60.0168C39.628 57.4376 41.5804 54.4989 41.5804 53.5181C41.5804 51.2114 38.9324 50.836 37.5432 52.946C36.4276 54.6406 34.72 56.5918 34.3532 56.5918C34.2004 56.5918 33.8612 55.7014 33.5996 54.6126C33.3376 53.5239 32.7864 51.8368 32.3744 50.8626C31.7452 49.3747 31.4428 49.0918 30.4828 49.0918C27.9972 49.0918 27.8684 50.2614 29.7236 55.9993L31.0668 60.1539L29.1164 62.4356C27.578 64.2356 27.1888 64.9789 27.2736 65.9593C27.3536 66.891 27.6564 67.3022 28.4832 67.6035C29.4624 67.9597 29.7588 67.8297 31.1208 66.4443L32.6548 64.8835L34.754 70.7243L36.8532 76.5651L36.06 77.7243C35.6236 78.3618 34.8872 79.2406 34.4236 79.6772C33.96 80.1139 33.5804 80.9668 33.5804 81.5731C33.5804 83.9735 35.6968 84.3918 37.526 82.3531L38.712 81.0314L39.378 82.6656C41.4888 87.8472 43.5804 93.4256 43.5804 93.8747C43.5804 94.1597 41.7904 96.1139 39.6024 98.2168C35.4212 102.236 34.8608 103.108 35.5724 104.493C36.4216 106.146 37.9324 105.563 41.4932 102.211C43.3152 100.495 44.9572 99.0918 45.142 99.0918C45.3272 99.0918 45.8084 100.606 46.2116 102.456C46.9968 106.06 47.6536 106.872 49.4116 106.413C50.8636 106.033 50.9452 104.645 49.794 99.9018L48.7488 95.5951L50.2648 94.0547C54.1784 90.0776 60.486 84.0918 60.7628 84.0918C60.9328 84.0918 61.396 84.9822 61.7924 86.071C62.1888 87.1597 63.5816 90.5651 64.888 93.6393L67.2628 99.2281L65.728 100.57C64.3236 101.798 64.2276 102.014 64.5944 103.106C65.0736 104.534 66.7256 104.915 68.17 103.929C69.05 103.328 69.1472 103.352 69.7532 104.316C70.6604 105.758 72.6236 105.74 73.2608 104.283C73.644 103.406 73.5828 102.922 72.9052 101.469L72.0868 99.7147L76.6568 93.7018C82.5232 85.9826 83.508 84.8293 83.9752 85.1301C84.186 85.266 85.7408 87.9281 87.4304 91.0456C89.4776 94.8235 90.3816 96.8831 90.1412 97.2197C88.5328 99.4718 88.31 99.9931 88.5424 100.957C88.8408 102.196 90.324 102.709 91.5812 102.008C92.324 101.594 92.5452 101.651 93.0412 102.389C93.7328 103.418 95.2684 103.524 96.152 102.604C96.9292 101.794 96.9292 101.804 96.1276 99.4752L95.4712 97.5668L98.6296 93.6418C100.367 91.4831 102.668 88.5451 103.743 87.1126C104.819 85.6806 105.807 84.5151 105.94 84.5235C106.255 84.5431 110.78 92.2193 110.78 92.7356C110.78 92.9543 109.52 94.3822 107.98 95.9089C105.124 98.7406 104.682 99.7631 105.809 100.937C106.908 102.082 107.984 101.658 110.588 99.0531L113.126 96.5139L113.909 98.1156C114.339 98.9964 114.923 100.561 115.206 101.592C115.489 102.623 115.895 103.706 116.108 103.998C116.32 104.29 116.396 104.631 116.276 104.756C116.156 104.881 110.956 105.245 104.719 105.565C90.8828 106.276 85.1664 106.7 68.1804 108.279C53.0852 109.683 35.2284 111.175 33.5312 111.175C32.5428 111.175 32.38 111.013 32.3784 110.029C32.3744 108.035 30.7928 97.4951 29.33 89.7168C28.1256 83.3114 21.6008 51.251 20.9032 48.3097L20.668 47.3193L29.2244 47.6072C33.93 47.7651 56.7704 47.9626 79.9804 48.046ZM58.618 78.8914C58.7836 79.5785 57.6888 80.8597 53.1792 85.2551C50.0736 88.2818 47.39 90.7585 47.2156 90.7585C47.0412 90.7585 45.7052 87.8051 44.2468 84.196L41.5948 77.6335L47.2736 71.9097L52.952 66.1856L55.6816 72.1081C57.1824 75.3656 58.504 78.4181 58.618 78.8914ZM100.675 72.2168C101.577 74.2793 102.67 76.9076 103.105 78.0572L103.895 80.1481L99.5136 85.7656C97.1032 88.8556 94.7252 91.8139 94.2284 92.3401L93.3252 93.2972L90.0168 87.2331L86.708 81.1693L92.6028 74.4831C95.8448 70.8056 98.6184 67.9476 98.7664 68.1318C98.9144 68.316 99.7732 70.1543 100.675 72.2168ZM80.8552 79.4193L81.6632 80.7881L79.906 82.7526C78.9396 83.8331 76.372 87.1147 74.2004 90.0456C72.0288 92.9764 70.1276 95.2264 69.976 95.0456C69.8244 94.8647 68.41 91.5351 66.8332 87.646L63.9664 80.5756L69.6504 74.6439L75.3348 68.7122L77.6908 73.381C78.9868 75.9489 80.4108 78.6664 80.8552 79.4193ZM103.953 130.952C106.619 132.388 108.372 135.97 107.6 138.406C106.852 140.766 105.445 141.8 102.98 141.8C101.254 141.8 100.64 141.6 99.7748 140.758C97.4488 138.495 97.0508 136.328 98.42 133.382C99.6948 130.639 101.72 129.749 103.953 130.952ZM53.9644 134.357C58.4428 137.112 56.0992 144.243 50.7404 144.166C47.2056 144.116 44.5884 141.191 45.5968 138.418C46.9544 134.686 51.1724 132.638 53.9644 134.357Z" fill="black"/>
</svg>
