<svg width="36" height="36" viewBox="0 0 36 36" fill="none" xmlns="http://www.w3.org/2000/svg">
<circle cx="18" cy="18" r="18" fill="white"/>
<path d="M14.1067 25.7935C14.5283 25.7935 14.8701 25.4518 14.8701 25.0302C14.8701 24.6086 14.5283 24.2668 14.1067 24.2668C13.6851 24.2668 13.3434 24.6086 13.3434 25.0302C13.3434 25.4518 13.6851 25.7935 14.1067 25.7935Z" stroke="black" stroke-width="1.74107" stroke-linecap="round" stroke-linejoin="round"/>
<path d="M24.7936 25.7935C25.2152 25.7935 25.557 25.4518 25.557 25.0302C25.557 24.6086 25.2152 24.2668 24.7936 24.2668C24.372 24.2668 24.0303 24.6086 24.0303 25.0302C24.0303 25.4518 24.372 25.7935 24.7936 25.7935Z" stroke="black" stroke-width="1.74107" stroke-linecap="round" stroke-linejoin="round"/>
<path d="M8 9H11.0534L13.3434 21.9769H25.557" stroke="black" stroke-width="1.74107" stroke-linecap="round" stroke-linejoin="round"/>
<path d="M13.3435 18.9235H25.2441C25.3323 18.9236 25.4179 18.893 25.4862 18.8371C25.5545 18.7812 25.6013 18.7033 25.6186 18.6167L26.9926 11.7466C27.0037 11.6912 27.0023 11.6341 26.9887 11.5792C26.975 11.5244 26.9493 11.4733 26.9135 11.4297C26.8776 11.386 26.8325 11.3508 26.7815 11.3266C26.7304 11.3025 26.6746 11.29 26.6181 11.29H11.8168" stroke="black" stroke-width="1.74107" stroke-linecap="round" stroke-linejoin="round"/>
</svg>
