<svg width="220" height="41" viewBox="0 0 220 41" fill="none" xmlns="http://www.w3.org/2000/svg">
<rect x="0.5" y="9.5" width="219" height="31" rx="3.5" stroke="black"/>
<rect x="12" width="34" height="20" fill="#F7F8FB"/>
<path d="M18.9766 13H14.125V4.43359H18.9766V5.61719H15.5312V7.94336H18.7598V9.12109H15.5312V11.8105H18.9766V13ZM28.0176 6.39062C28.7441 6.39062 29.291 6.57812 29.6582 6.95312C30.0293 7.32812 30.2148 7.92969 30.2148 8.75781V13H28.8379V9.00391C28.8379 8.51172 28.7422 8.14062 28.5508 7.89062C28.3594 7.64062 28.0684 7.51562 27.6777 7.51562C27.1309 7.51562 26.7363 7.69141 26.4941 8.04297C26.2559 8.39062 26.1367 8.89648 26.1367 9.56055V13H24.7598V9.00391C24.7598 8.67578 24.7168 8.40234 24.6309 8.18359C24.5488 7.96094 24.4219 7.79492 24.25 7.68555C24.0781 7.57227 23.8613 7.51562 23.5996 7.51562C23.2207 7.51562 22.918 7.60156 22.6914 7.77344C22.4688 7.94531 22.3086 8.19922 22.2109 8.53516C22.1133 8.86719 22.0645 9.27539 22.0645 9.75977V13H20.6875V6.51367H21.7598L21.9531 7.38672H22.0293C22.1621 7.16016 22.3262 6.97461 22.5215 6.83008C22.7207 6.68164 22.9414 6.57227 23.1836 6.50195C23.4258 6.42773 23.6777 6.39062 23.9395 6.39062C24.4238 6.39062 24.832 6.47656 25.1641 6.64844C25.4961 6.81641 25.7441 7.07422 25.9082 7.42188H26.0137C26.2168 7.07031 26.5 6.81055 26.8633 6.64258C27.2266 6.47461 27.6113 6.39062 28.0176 6.39062ZM34.6797 6.39062C35.5 6.39062 36.1191 6.57227 36.5371 6.93555C36.959 7.29883 37.1699 7.86523 37.1699 8.63477V13H36.1914L35.9277 12.0801H35.8809C35.6973 12.3145 35.5078 12.5078 35.3125 12.6602C35.1172 12.8125 34.8906 12.9258 34.6328 13C34.3789 13.0781 34.0684 13.1172 33.7012 13.1172C33.3145 13.1172 32.9688 13.0469 32.6641 12.9062C32.3594 12.7617 32.1191 12.543 31.9434 12.25C31.7676 11.957 31.6797 11.5859 31.6797 11.1367C31.6797 10.4688 31.9277 9.9668 32.4238 9.63086C32.9238 9.29492 33.6777 9.10938 34.6855 9.07422L35.8105 9.0332V8.69336C35.8105 8.24414 35.7051 7.92383 35.4941 7.73242C35.2871 7.54102 34.9941 7.44531 34.6152 7.44531C34.291 7.44531 33.9766 7.49219 33.6719 7.58594C33.3672 7.67969 33.0703 7.79492 32.7812 7.93164L32.3359 6.95898C32.6523 6.79102 33.0117 6.6543 33.4141 6.54883C33.8203 6.44336 34.2422 6.39062 34.6797 6.39062ZM35.8047 9.90039L34.9668 9.92969C34.2793 9.95312 33.7969 10.0703 33.5195 10.2812C33.2422 10.4922 33.1035 10.7812 33.1035 11.1484C33.1035 11.4688 33.1992 11.7031 33.3906 11.8516C33.582 11.9961 33.834 12.0684 34.1465 12.0684C34.623 12.0684 35.0176 11.9336 35.3301 11.6641C35.6465 11.3906 35.8047 10.9902 35.8047 10.4629V9.90039ZM40.4746 6.51367V13H39.0977V6.51367H40.4746ZM39.7949 4.0293C40.0059 4.0293 40.1875 4.08594 40.3398 4.19922C40.4961 4.3125 40.5742 4.50781 40.5742 4.78516C40.5742 5.05859 40.4961 5.25391 40.3398 5.37109C40.1875 5.48438 40.0059 5.54102 39.7949 5.54102C39.5762 5.54102 39.3906 5.48438 39.2383 5.37109C39.0898 5.25391 39.0156 5.05859 39.0156 4.78516C39.0156 4.50781 39.0898 4.3125 39.2383 4.19922C39.3906 4.08594 39.5762 4.0293 39.7949 4.0293ZM43.832 13H42.4492V3.88281H43.832V13Z" fill="black"/>
</svg>
