<svg width="88" height="28" viewBox="0 0 88 28" fill="none" xmlns="http://www.w3.org/2000/svg">
<rect x="0.5" y="0.5" width="87" height="27" rx="3.5" stroke="black"/>
<path fill-rule="evenodd" clip-rule="evenodd" d="M23.875 14.0474C23.875 9.69853 20.3488 6.17236 16 6.17236C11.6512 6.17236 8.125 9.69853 8.125 14.0474C8.125 17.9778 11.0043 21.2358 14.7695 21.8271V16.3244H12.7695V14.0474H14.7695V12.3124C14.7695 10.3391 15.9455 9.24818 17.7441 9.24818C18.6058 9.24818 19.5072 9.40217 19.5072 9.40217V11.3403H18.5137C17.536 11.3403 17.2301 11.9471 17.2301 12.5708V14.0474H19.414L19.0653 16.3244H17.2305V21.8278C20.9957 21.2368 23.875 17.9789 23.875 14.0474V14.0474Z" fill="black"/>
<path d="M29.168 19H28.1719V10.4336H32.9414V11.3125H29.168V14.4531H32.7129V15.3262H29.168V19ZM36.627 12.4727C37.3926 12.4727 37.9609 12.6445 38.332 12.9883C38.7031 13.332 38.8887 13.8809 38.8887 14.6348V19H38.1797L37.9922 18.0508H37.9453C37.7656 18.2852 37.5781 18.4824 37.3828 18.6426C37.1875 18.7988 36.9609 18.918 36.7031 19C36.4492 19.0781 36.1367 19.1172 35.7656 19.1172C35.375 19.1172 35.0273 19.0488 34.7227 18.9121C34.4219 18.7754 34.1836 18.5684 34.0078 18.291C33.8359 18.0137 33.75 17.6621 33.75 17.2363C33.75 16.5957 34.0039 16.1035 34.5117 15.7598C35.0195 15.416 35.793 15.2285 36.832 15.1973L37.9395 15.1504V14.7578C37.9395 14.2031 37.8203 13.8145 37.582 13.5918C37.3438 13.3691 37.0078 13.2578 36.5742 13.2578C36.2383 13.2578 35.918 13.3066 35.6133 13.4043C35.3086 13.502 35.0195 13.6172 34.7461 13.75L34.4473 13.0117C34.7363 12.8633 35.0684 12.7363 35.4434 12.6309C35.8184 12.5254 36.2129 12.4727 36.627 12.4727ZM37.9277 15.8359L36.9492 15.877C36.1484 15.9082 35.584 16.0391 35.2559 16.2695C34.9277 16.5 34.7637 16.8262 34.7637 17.248C34.7637 17.6152 34.875 17.8867 35.0977 18.0625C35.3203 18.2383 35.6152 18.3262 35.9824 18.3262C36.5527 18.3262 37.0195 18.168 37.3828 17.8516C37.7461 17.5352 37.9277 17.0605 37.9277 16.4277V15.8359ZM43.4648 19.1172C42.8867 19.1172 42.377 18.998 41.9355 18.7598C41.4941 18.5215 41.1504 18.1582 40.9043 17.6699C40.6582 17.1816 40.5352 16.5664 40.5352 15.8242C40.5352 15.0469 40.6641 14.4121 40.9219 13.9199C41.1836 13.4238 41.543 13.0566 42 12.8184C42.457 12.5801 42.9766 12.4609 43.5586 12.4609C43.8789 12.4609 44.1875 12.4941 44.4844 12.5605C44.7852 12.623 45.0312 12.7031 45.2227 12.8008L44.9297 13.6152C44.7344 13.5371 44.5078 13.4668 44.25 13.4043C43.9961 13.3418 43.7578 13.3105 43.5352 13.3105C43.0898 13.3105 42.7188 13.4062 42.4219 13.5977C42.1289 13.7891 41.9082 14.0703 41.7598 14.4414C41.6152 14.8125 41.543 15.2695 41.543 15.8125C41.543 16.332 41.6133 16.7754 41.7539 17.1426C41.8984 17.5098 42.1113 17.791 42.3926 17.9863C42.6777 18.1777 43.0332 18.2734 43.459 18.2734C43.7988 18.2734 44.1055 18.2383 44.3789 18.168C44.6523 18.0938 44.9004 18.0078 45.123 17.9102V18.7773C44.9082 18.8867 44.668 18.9707 44.4023 19.0293C44.1406 19.0879 43.8281 19.1172 43.4648 19.1172ZM49.1191 12.4609C49.666 12.4609 50.1348 12.582 50.5254 12.8242C50.916 13.0664 51.2148 13.4062 51.4219 13.8438C51.6289 14.2773 51.7324 14.7852 51.7324 15.3672V15.9707H47.2969C47.3086 16.7246 47.4961 17.2988 47.8594 17.6934C48.2227 18.0879 48.7344 18.2852 49.3945 18.2852C49.8008 18.2852 50.1602 18.248 50.4727 18.1738C50.7852 18.0996 51.1094 17.9902 51.4453 17.8457V18.7012C51.1211 18.8457 50.7988 18.9512 50.4785 19.0176C50.1621 19.084 49.7871 19.1172 49.3535 19.1172C48.7363 19.1172 48.1973 18.9922 47.7363 18.7422C47.2793 18.4883 46.9238 18.1172 46.6699 17.6289C46.416 17.1406 46.2891 16.543 46.2891 15.8359C46.2891 15.1445 46.4043 14.5469 46.6348 14.043C46.8691 13.5352 47.1973 13.1445 47.6191 12.8711C48.0449 12.5977 48.5449 12.4609 49.1191 12.4609ZM49.1074 13.2578C48.5879 13.2578 48.1738 13.4277 47.8652 13.7676C47.5566 14.1074 47.373 14.582 47.3145 15.1914H50.7129C50.709 14.8086 50.6484 14.4727 50.5312 14.1836C50.418 13.8906 50.2441 13.6641 50.0098 13.5039C49.7754 13.3398 49.4746 13.2578 49.1074 13.2578ZM54.3574 9.88281V12.1621C54.3574 12.4238 54.3496 12.6777 54.334 12.9238C54.3223 13.1699 54.3125 13.3613 54.3047 13.498H54.3574C54.5332 13.209 54.7871 12.9648 55.1191 12.7656C55.4512 12.5664 55.875 12.4668 56.3906 12.4668C57.1953 12.4668 57.8359 12.7461 58.3125 13.3047C58.793 13.8594 59.0332 14.6855 59.0332 15.7832C59.0332 16.5059 58.9238 17.1152 58.7051 17.6113C58.4863 18.1074 58.1777 18.4824 57.7793 18.7363C57.3809 18.9902 56.9102 19.1172 56.3672 19.1172C55.8594 19.1172 55.4414 19.0234 55.1133 18.8359C54.7891 18.6445 54.5391 18.4121 54.3633 18.1387H54.2871L54.0879 19H53.3848V9.88281H54.3574ZM56.2324 13.2812C55.7676 13.2812 55.3984 13.373 55.125 13.5566C54.8516 13.7363 54.6543 14.0098 54.5332 14.377C54.416 14.7402 54.3574 15.2012 54.3574 15.7598V15.8125C54.3574 16.6211 54.4922 17.2402 54.7617 17.6699C55.0312 18.0957 55.5215 18.3086 56.2324 18.3086C56.8301 18.3086 57.2773 18.0898 57.5742 17.6523C57.875 17.2148 58.0254 16.5898 58.0254 15.7773C58.0254 14.9492 57.877 14.3262 57.5801 13.9082C57.2871 13.4902 56.8379 13.2812 56.2324 13.2812ZM66.2695 15.7773C66.2695 16.3047 66.2012 16.7754 66.0645 17.1895C65.9277 17.6035 65.7305 17.9531 65.4727 18.2383C65.2148 18.5234 64.9023 18.7422 64.5352 18.8945C64.1719 19.043 63.7598 19.1172 63.2988 19.1172C62.8691 19.1172 62.4746 19.043 62.1152 18.8945C61.7598 18.7422 61.4512 18.5234 61.1895 18.2383C60.9316 17.9531 60.7305 17.6035 60.5859 17.1895C60.4453 16.7754 60.375 16.3047 60.375 15.7773C60.375 15.0742 60.4941 14.4766 60.7324 13.9844C60.9707 13.4883 61.3105 13.1113 61.752 12.8535C62.1973 12.5918 62.7266 12.4609 63.3398 12.4609C63.9258 12.4609 64.4375 12.5918 64.875 12.8535C65.3164 13.1152 65.6582 13.4941 65.9004 13.9902C66.1465 14.4824 66.2695 15.0781 66.2695 15.7773ZM61.3828 15.7773C61.3828 16.293 61.4512 16.7402 61.5879 17.1191C61.7246 17.498 61.9355 17.791 62.2207 17.998C62.5059 18.2051 62.873 18.3086 63.3223 18.3086C63.7676 18.3086 64.1328 18.2051 64.418 17.998C64.707 17.791 64.9199 17.498 65.0566 17.1191C65.1934 16.7402 65.2617 16.293 65.2617 15.7773C65.2617 15.2656 65.1934 14.8242 65.0566 14.4531C64.9199 14.0781 64.709 13.7891 64.4238 13.5859C64.1387 13.3828 63.7695 13.2812 63.3164 13.2812C62.6484 13.2812 62.1582 13.502 61.8457 13.9434C61.5371 14.3848 61.3828 14.9961 61.3828 15.7773ZM73.4883 15.7773C73.4883 16.3047 73.4199 16.7754 73.2832 17.1895C73.1465 17.6035 72.9492 17.9531 72.6914 18.2383C72.4336 18.5234 72.1211 18.7422 71.7539 18.8945C71.3906 19.043 70.9785 19.1172 70.5176 19.1172C70.0879 19.1172 69.6934 19.043 69.334 18.8945C68.9785 18.7422 68.6699 18.5234 68.4082 18.2383C68.1504 17.9531 67.9492 17.6035 67.8047 17.1895C67.6641 16.7754 67.5938 16.3047 67.5938 15.7773C67.5938 15.0742 67.7129 14.4766 67.9512 13.9844C68.1895 13.4883 68.5293 13.1113 68.9707 12.8535C69.416 12.5918 69.9453 12.4609 70.5586 12.4609C71.1445 12.4609 71.6562 12.5918 72.0938 12.8535C72.5352 13.1152 72.877 13.4941 73.1191 13.9902C73.3652 14.4824 73.4883 15.0781 73.4883 15.7773ZM68.6016 15.7773C68.6016 16.293 68.6699 16.7402 68.8066 17.1191C68.9434 17.498 69.1543 17.791 69.4395 17.998C69.7246 18.2051 70.0918 18.3086 70.541 18.3086C70.9863 18.3086 71.3516 18.2051 71.6367 17.998C71.9258 17.791 72.1387 17.498 72.2754 17.1191C72.4121 16.7402 72.4805 16.293 72.4805 15.7773C72.4805 15.2656 72.4121 14.8242 72.2754 14.4531C72.1387 14.0781 71.9277 13.7891 71.6426 13.5859C71.3574 13.3828 70.9883 13.2812 70.5352 13.2812C69.8672 13.2812 69.377 13.502 69.0645 13.9434C68.7559 14.3848 68.6016 14.9961 68.6016 15.7773ZM76.1367 9.88281V14.6172C76.1367 14.7734 76.1309 14.9648 76.1191 15.1914C76.1074 15.4141 76.0977 15.6113 76.0898 15.7832H76.1309C76.2129 15.6816 76.332 15.5312 76.4883 15.332C76.6484 15.1328 76.7832 14.9727 76.8926 14.8516L79.0254 12.5781H80.168L77.584 15.3203L80.3555 19H79.1836L76.916 15.959L76.1367 16.6738V19H75.1699V9.88281H76.1367Z" fill="black"/>
</svg>
