<svg width="158" height="157" viewBox="0 0 158 157" fill="none" xmlns="http://www.w3.org/2000/svg">
<path fill-rule="evenodd" clip-rule="evenodd" d="M82.4482 0.506755C79.8064 1.22476 76.6059 2.90596 75.4538 4.17996C74.3889 5.35756 74.3508 5.50156 74.9039 6.25996C75.2128 6.68436 75.8579 6.54556 78.0459 5.58476C79.5604 4.91956 81.3995 4.31956 82.1328 4.25076C83.3843 4.13396 83.4634 4.21236 83.4216 5.52636C83.3968 6.29636 82.6432 8.36636 81.7466 10.1264C80.3186 12.9296 79.982 13.3124 79.0326 13.214C77.525 13.0576 73.4984 10.8764 70.7034 8.70236C67.8786 6.50516 67.954 5.70956 71.0257 5.30876C74.697 4.82996 73.0574 3.52636 68.7839 3.52636C64.7894 3.52636 63.4827 5.15036 65.0965 8.10876C66.1793 10.0936 68.2312 11.7096 72.1935 13.698C76.2248 15.7208 77.719 17.0932 77.719 18.7728C77.719 20.2288 79.583 20.7928 80.9186 19.7412C83.28 17.882 88.2938 6.83036 88.2938 3.48516C88.2938 2.32476 87.9862 1.62236 87.165 0.908355C85.8993 -0.193245 85.2312 -0.250045 82.4482 0.506755ZM60.6004 32.704C59.4036 33.1108 57.7839 33.9124 57.0018 34.4852C55.3972 35.6596 54.5489 35.7508 52.8915 34.9264C52.2593 34.612 50.8533 34.3484 49.7673 34.3404C44.8984 34.3056 44.0956 38.8904 48.3949 42.1744C49.2846 42.854 51.908 44.3616 54.2248 45.5248C56.5411 46.6884 58.9508 48.1992 59.5793 48.8832C60.2073 49.5668 60.9443 50.3616 61.217 50.6492C61.4896 50.9372 62.2505 51.1172 62.908 51.0492C63.9411 50.9432 64.1889 50.6276 64.7305 48.7264C65.0749 47.5164 66.0694 44.5948 66.9402 42.2336C68.9011 36.9184 69.0271 34.328 67.3949 32.9084C66.0115 31.7044 63.7402 31.636 60.6004 32.704ZM124.825 34.5084C123.945 35.2732 123.696 35.9068 123.696 37.3768C123.696 38.4144 123.98 39.5476 124.327 39.8948C124.674 40.2424 125.4 42.6244 125.941 45.1888C127.435 52.2656 128.488 53.8956 131.028 53.0612C132.875 52.4544 134.54 50.88 138.714 45.794C143.4 40.0836 143.676 39.5384 142.804 37.7216C141.982 36.0108 140.504 35.6376 137.024 36.2628C133.23 36.9448 132.263 36.85 131.017 35.6748C129.958 34.6752 127.515 33.5264 126.449 33.5264C126.176 33.5264 125.445 33.9684 124.825 34.5084ZM63.6524 38.3264C63.6009 40.454 61.5223 44.7264 60.5388 44.7264C59.9213 44.7264 58.4666 43.9304 51.8317 39.9616C50.182 38.9748 49.6579 38.4228 49.7627 37.7832C49.9595 36.5824 52.08 36.4276 53.6464 37.4996C55.182 38.5504 55.4997 38.5388 58.4781 37.3204C59.8308 36.7672 61.5581 36.3624 62.3167 36.4204C63.6345 36.5216 63.6942 36.6068 63.6524 38.3264ZM130.852 38.5264C132.928 40.006 133.762 40.1912 135.244 39.5012C135.747 39.2676 136.575 39.1324 137.086 39.2012C137.936 39.3156 137.849 39.5412 136.071 41.84C133.914 44.6292 131.134 46.9672 130.581 46.4572C129.971 45.8952 127.834 39.5528 127.834 38.3056C127.834 36.7728 128.457 36.8184 130.852 38.5264ZM4.6579 53.6872C2.15813 56.0024 3.06158 59.1952 7.46986 63.6224C9.62618 65.788 9.69652 65.9264 8.64043 65.9264C8.0225 65.9264 6.28089 66.6216 4.76963 67.4712C0.349398 69.9568 -1.35589 73.5248 1.18526 74.9732C2.91951 75.962 8.1448 75.4996 15.88 73.6728C20.8492 72.4992 23.0243 72.1736 25.4202 72.2448L28.5236 72.3372V70.9652C28.5236 69.1352 25.3186 65.0044 19.5646 59.4188C14.3177 54.3252 11.5765 52.736 8.02894 52.73C6.15629 52.7272 5.49055 52.916 4.6579 53.6872ZM105.004 54.5148C104.473 54.8384 101.168 55.6556 97.6602 56.3304C83.6703 59.0212 64.045 64.0124 49.7885 68.5044C35.3922 73.0404 23.2547 77.1552 22.5899 77.7252C22.0565 78.1828 21.9158 81.7244 21.7843 98.0028C21.6377 116.148 22.0253 127.176 22.9476 131.118C23.2487 132.403 23.5168 132.588 26.4731 133.546C30.9563 134.998 31.5218 135.267 51.742 145.55C59.2772 149.382 68.9834 153.655 71.851 154.402C73.0294 154.709 73.8115 155.202 74.0735 155.801C74.3669 156.472 74.8413 156.726 75.8013 156.726C76.5292 156.726 81.5512 154.904 86.9618 152.678C96.9393 148.572 107.12 144.857 115.88 142.126C126.062 138.952 143.345 131.828 145.938 129.737C147.433 128.532 147.604 128.503 147.604 129.457C147.604 130.402 149.474 131.926 150.635 131.926C152.034 131.926 153.465 130.854 153.971 129.425C154.224 128.711 154.562 126.506 154.722 124.526C154.882 122.546 155.301 118.676 155.653 115.926C157.069 104.873 157.298 100.931 156.796 96.2936C156.285 91.5792 155.259 87.2812 154.21 85.458C153.464 84.1628 151.248 82.7264 149.995 82.7264C149.492 82.7264 148.665 82.3216 148.157 81.8264C147.65 81.3312 146.36 80.0708 145.291 79.0256C144.222 77.98 140.736 75.4968 137.544 73.5076C134.353 71.5184 129.88 68.7188 127.604 67.2868C125.328 65.8548 122.162 63.8772 120.568 62.8916C118.974 61.9064 117.247 60.476 116.73 59.7132C116.212 58.9504 115.522 58.3264 115.195 58.3264C114.869 58.3264 113.372 57.5388 111.868 56.5756C107.382 53.7028 106.682 53.4924 105.004 54.5148ZM13.1057 58.4492C16.1443 61.5112 22.1356 68.4172 21.9181 68.6068C21.1039 69.3152 5.2671 72.6264 4.76825 72.1928C4.30618 71.7904 6.44687 69.9548 8.38756 69.0888C9.32411 68.6708 11.2377 67.9556 12.6404 67.4988C16.2446 66.326 16.1158 65.63 11.5122 61.3988C7.34618 57.57 6.83262 56.3264 9.41652 56.3264C10.7572 56.3264 11.3218 56.6516 13.1057 58.4492ZM108.891 59.6064C110.487 60.9944 108.861 63.3472 101.618 70.1264C98.4335 73.1072 95.4519 76.3912 93.7508 78.7924C90.4096 83.5068 90.0892 83.7704 88.4092 83.1772C86.5089 82.5064 74.0662 80.3612 68.3053 79.7112C59.9935 78.7736 56.9476 78.2592 54.0409 77.3028C52.5236 76.8032 49.0064 76.0916 46.2248 75.7212C43.4432 75.3504 41.0082 74.9176 40.8133 74.7588C40.4951 74.4996 55.6841 70.1512 69.4432 66.5628C74.371 65.2776 98.6055 59.818 101.167 59.4156C103.66 59.0244 108.356 59.1404 108.891 59.6064ZM117.719 66.732C119.616 68.052 124.633 71.1512 128.868 73.6196C135.959 77.7512 137.844 79.1056 135.765 78.5748C135.323 78.462 130.719 77.4424 125.535 76.3096C112.651 73.494 103.961 73.1176 104.467 75.3968C104.582 75.914 106.386 76.4116 112.432 77.594C129.45 80.9224 143.342 83.9892 144.733 84.7252C147.114 85.9848 148.854 88.464 149.712 91.8188C150.761 95.9216 150.389 105.589 148.792 115.726C147.125 126.304 147.476 125.392 144.943 125.723C143.66 125.89 140.157 127.189 136.247 128.948C128.705 132.34 117.54 136.652 109.903 139.122C97.9949 142.974 89.3374 146.463 82.508 150.162C80.7168 151.132 79.0138 151.926 78.7236 151.926C78.4335 151.926 78.0813 151.522 77.9407 151.026C77.8 150.531 77.8478 141.69 78.0469 131.378L78.4087 112.631L84.6156 110.688C88.0294 109.62 97.5466 106.856 105.765 104.546C127.215 98.5192 142.777 93.7644 144.631 92.6724C146.475 91.5852 146.53 90.7084 144.777 90.3008C143.885 90.0932 142.657 90.3724 140.18 91.3464C138.32 92.0772 134.11 93.3868 130.822 94.2564C108.803 100.081 92.1305 104.65 85.9949 106.541C82.0754 107.749 78.3512 108.734 77.719 108.73C76.211 108.721 73.8947 107.469 72.8257 106.085C71.2404 104.032 68.7043 102.135 65.0202 100.247C63.0036 99.214 60.9692 97.9988 60.4993 97.5472C59.7236 96.8016 59.7108 96.6624 60.3604 96.0264C60.754 95.6412 61.3807 94.6832 61.7535 93.8972C62.1264 93.1112 63.0322 91.8512 63.7664 91.0972C64.5007 90.3432 65.8694 88.6968 66.8082 87.438C69.5167 83.8072 69.531 83.8032 77.051 84.738C80.5793 85.1768 84.6253 85.8936 86.0423 86.3312C89.5586 87.4168 91.5811 87.3608 93.2616 86.1308C94.0096 85.5832 96.1839 83.108 98.0928 80.6308C100.002 78.1532 103.389 74.2952 105.619 72.0572C107.849 69.8192 110.463 67.164 111.429 66.1572C112.395 65.1504 113.43 64.3276 113.728 64.3292C114.027 64.3308 115.822 65.412 117.719 66.732ZM43.8105 78.928C48.1728 79.9188 54.0179 81.2612 56.7995 81.9112C59.5811 82.5612 62.4138 83.1008 63.0942 83.11C64.6519 83.1308 65.0381 83.6576 64.3471 84.818C63.9319 85.5156 58.959 91.1444 56.5333 93.6632C56.3549 93.8488 54.5434 92.6664 52.508 91.0356C50.4092 89.354 47.1963 87.304 45.0846 86.2988C32.8823 80.4904 28.737 78.1968 29.2174 77.5204C29.9043 76.5536 35.9048 77.132 43.8105 78.928ZM31.7471 86.0528C33.6409 87.1124 37.7765 89.2452 40.9374 90.7924C47.6367 94.0712 50.3678 95.8172 54.3517 99.3676C56.4823 101.266 58.4105 102.475 61.623 103.925C65.0643 105.479 66.7604 106.574 69.5912 109.073L73.1871 112.247L72.6289 130.787C72.3214 140.984 71.983 149.413 71.8767 149.519C71.497 149.896 60.9945 144.982 55.7246 141.962C46.6593 136.768 43.3751 135.053 35.7342 131.526C31.1632 129.417 28.0046 127.698 27.411 126.998C26.3384 125.732 26.4055 128.473 26.7259 99.0732C26.8754 85.3852 26.9751 83.6488 27.5991 83.8732C27.9866 84.0124 29.8528 84.9932 31.7471 86.0528ZM37.1154 107.044C36.7053 107.438 36.1269 109.013 35.8303 110.544C35.3696 112.919 35.3977 113.546 36.0216 114.826C36.8947 116.618 38.2464 116.819 39.3728 115.324C40.4731 113.862 41.2584 108.657 40.5747 107.352C39.9333 106.128 38.2266 105.975 37.1154 107.044ZM122.794 106.796C120.849 107.281 118.884 108.43 116.956 110.208L115.502 111.549L113.603 110.887C110.636 109.854 107.774 110.298 105.896 112.081C104.779 113.141 104.386 113.886 104.386 114.94C104.386 118.144 106.738 120.025 113.688 122.382C116.243 123.248 119.308 124.58 120.502 125.342C122.915 126.883 124.654 127.093 125.917 125.994C126.38 125.592 127.658 123.297 128.758 120.894C130.476 117.142 130.784 116.019 130.945 112.925C131.113 109.712 131.028 109.207 130.153 108.239C129.241 107.231 126.681 106.286 125.075 106.365C124.696 106.383 123.669 106.578 122.794 106.796ZM126.046 111.25C126.255 111.934 126.127 113.142 125.717 114.341C124.771 117.114 122.439 121.526 121.92 121.526C121.508 121.526 115.77 119.301 111.284 117.402C109.136 116.492 108.513 115.502 109.462 114.507C110.19 113.744 113.307 113.757 114.041 114.526C114.971 115.501 116.112 115.229 118.657 113.426C124.2 109.499 125.403 109.144 126.046 111.25ZM52.4772 111.367C51.348 112.616 50.8795 114.47 50.8469 117.818C50.8243 120.12 50.9379 120.408 52.343 121.618L53.8634 122.926L54.72 122.022C56.3319 120.319 57.2542 112.987 56.0938 111.1C55.4138 109.995 53.5967 110.129 52.4772 111.367ZM40.5926 126.721C38.0197 127.666 40.4087 129.67 44.6928 130.161C46.9581 130.42 48.6317 129.67 48.1623 128.605C47.531 127.174 42.6602 125.962 40.5926 126.721Z" fill="black"/>
</svg>
