<svg width="88" height="28" viewBox="0 0 88 28" fill="none" xmlns="http://www.w3.org/2000/svg">
<path d="M30.6345 12.7864L30.5551 12.4493H23.2271V15.5507H27.6055C27.1509 17.7093 25.0415 18.8456 23.3185 18.8456C22.0648 18.8456 20.7433 18.3182 19.8686 17.4706C19.4071 17.0163 19.0398 16.4754 18.7876 15.8789C18.5355 15.2824 18.4034 14.642 18.3991 13.9944C18.3991 12.688 18.9862 11.3812 19.8405 10.5216C20.6948 9.66207 21.985 9.18113 23.2679 9.18113C24.7371 9.18113 25.79 9.96125 26.1838 10.317L28.3877 8.12469C27.7412 7.55656 25.9651 6.125 23.1969 6.125C21.0611 6.125 19.0133 6.94309 17.5163 8.43512C16.0391 9.9043 15.2744 12.0288 15.2744 14C15.2744 15.9712 15.9979 17.9895 17.4295 19.4703C18.9591 21.0495 21.1255 21.875 23.3561 21.875C25.3857 21.875 27.3095 21.0798 28.6805 19.637C30.0284 18.2166 30.7256 16.2514 30.7256 14.1912C30.7256 13.3239 30.6384 12.8089 30.6345 12.7864Z" fill="black"/>
<rect x="0.5" y="0.5" width="87" height="27" rx="3.5" stroke="black"/>
<path d="M38.834 14.5117H41.8281V18.666C41.3789 18.8184 40.916 18.9316 40.4395 19.0059C39.9668 19.0801 39.4375 19.1172 38.8516 19.1172C37.9609 19.1172 37.209 18.9395 36.5957 18.584C35.9863 18.2285 35.5234 17.7227 35.207 17.0664C34.8906 16.4062 34.7324 15.623 34.7324 14.7168C34.7324 13.8301 34.9062 13.0566 35.2539 12.3965C35.6055 11.7363 36.1113 11.2246 36.7715 10.8613C37.4355 10.4941 38.2324 10.3105 39.1621 10.3105C39.6387 10.3105 40.0898 10.3555 40.5156 10.4453C40.9453 10.5312 41.3438 10.6543 41.7109 10.8145L41.3301 11.6816C41.0137 11.5449 40.6641 11.4277 40.2812 11.3301C39.9023 11.2324 39.5098 11.1836 39.1035 11.1836C38.4043 11.1836 37.8047 11.3281 37.3047 11.6172C36.8086 11.9062 36.4277 12.3145 36.1621 12.8418C35.9004 13.3691 35.7695 13.9941 35.7695 14.7168C35.7695 15.4316 35.8848 16.0547 36.1152 16.5859C36.3457 17.1133 36.7051 17.5234 37.1934 17.8164C37.6816 18.1094 38.3105 18.2559 39.0801 18.2559C39.4668 18.2559 39.7988 18.2344 40.0762 18.1914C40.3535 18.1445 40.6055 18.0898 40.832 18.0273V15.4023H38.834V14.5117ZM49.293 15.7773C49.293 16.3047 49.2246 16.7754 49.0879 17.1895C48.9512 17.6035 48.7539 17.9531 48.4961 18.2383C48.2383 18.5234 47.9258 18.7422 47.5586 18.8945C47.1953 19.043 46.7832 19.1172 46.3223 19.1172C45.8926 19.1172 45.498 19.043 45.1387 18.8945C44.7832 18.7422 44.4746 18.5234 44.2129 18.2383C43.9551 17.9531 43.7539 17.6035 43.6094 17.1895C43.4688 16.7754 43.3984 16.3047 43.3984 15.7773C43.3984 15.0742 43.5176 14.4766 43.7559 13.9844C43.9941 13.4883 44.334 13.1113 44.7754 12.8535C45.2207 12.5918 45.75 12.4609 46.3633 12.4609C46.9492 12.4609 47.4609 12.5918 47.8984 12.8535C48.3398 13.1152 48.6816 13.4941 48.9238 13.9902C49.1699 14.4824 49.293 15.0781 49.293 15.7773ZM44.4062 15.7773C44.4062 16.293 44.4746 16.7402 44.6113 17.1191C44.748 17.498 44.959 17.791 45.2441 17.998C45.5293 18.2051 45.8965 18.3086 46.3457 18.3086C46.791 18.3086 47.1562 18.2051 47.4414 17.998C47.7305 17.791 47.9434 17.498 48.0801 17.1191C48.2168 16.7402 48.2852 16.293 48.2852 15.7773C48.2852 15.2656 48.2168 14.8242 48.0801 14.4531C47.9434 14.0781 47.7324 13.7891 47.4473 13.5859C47.1621 13.3828 46.793 13.2812 46.3398 13.2812C45.6719 13.2812 45.1816 13.502 44.8691 13.9434C44.5605 14.3848 44.4062 14.9961 44.4062 15.7773ZM56.5117 15.7773C56.5117 16.3047 56.4434 16.7754 56.3066 17.1895C56.1699 17.6035 55.9727 17.9531 55.7148 18.2383C55.457 18.5234 55.1445 18.7422 54.7773 18.8945C54.4141 19.043 54.002 19.1172 53.541 19.1172C53.1113 19.1172 52.7168 19.043 52.3574 18.8945C52.002 18.7422 51.6934 18.5234 51.4316 18.2383C51.1738 17.9531 50.9727 17.6035 50.8281 17.1895C50.6875 16.7754 50.6172 16.3047 50.6172 15.7773C50.6172 15.0742 50.7363 14.4766 50.9746 13.9844C51.2129 13.4883 51.5527 13.1113 51.9941 12.8535C52.4395 12.5918 52.9688 12.4609 53.582 12.4609C54.168 12.4609 54.6797 12.5918 55.1172 12.8535C55.5586 13.1152 55.9004 13.4941 56.1426 13.9902C56.3887 14.4824 56.5117 15.0781 56.5117 15.7773ZM51.625 15.7773C51.625 16.293 51.6934 16.7402 51.8301 17.1191C51.9668 17.498 52.1777 17.791 52.4629 17.998C52.748 18.2051 53.1152 18.3086 53.5645 18.3086C54.0098 18.3086 54.375 18.2051 54.6602 17.998C54.9492 17.791 55.1621 17.498 55.2988 17.1191C55.4355 16.7402 55.5039 16.293 55.5039 15.7773C55.5039 15.2656 55.4355 14.8242 55.2988 14.4531C55.1621 14.0781 54.9512 13.7891 54.666 13.5859C54.3809 13.3828 54.0117 13.2812 53.5586 13.2812C52.8906 13.2812 52.4004 13.502 52.0879 13.9434C51.7793 14.3848 51.625 14.9961 51.625 15.7773ZM59.9863 21.8828C59.1426 21.8828 58.4922 21.7246 58.0352 21.4082C57.5781 21.0957 57.3496 20.6562 57.3496 20.0898C57.3496 19.6875 57.4766 19.3438 57.7305 19.0586C57.9883 18.7734 58.3438 18.584 58.7969 18.4902C58.6289 18.4121 58.4844 18.2949 58.3633 18.1387C58.2461 17.9824 58.1875 17.8027 58.1875 17.5996C58.1875 17.3652 58.252 17.1602 58.3809 16.9844C58.5137 16.8047 58.7148 16.6328 58.9844 16.4688C58.6484 16.332 58.375 16.1016 58.1641 15.7773C57.957 15.4492 57.8535 15.0684 57.8535 14.6348C57.8535 14.1738 57.9492 13.7812 58.1406 13.457C58.332 13.1289 58.6094 12.8789 58.9727 12.707C59.3359 12.5352 59.7754 12.4492 60.291 12.4492C60.4043 12.4492 60.5176 12.4551 60.6309 12.4668C60.748 12.4746 60.8594 12.4883 60.9648 12.5078C61.0703 12.5234 61.1621 12.543 61.2402 12.5664H63.4434V13.1934L62.2598 13.3398C62.377 13.4922 62.4746 13.6758 62.5527 13.8906C62.6309 14.1055 62.6699 14.3438 62.6699 14.6055C62.6699 15.2461 62.4531 15.7559 62.0195 16.1348C61.5859 16.5098 60.9902 16.6973 60.2324 16.6973C60.0527 16.6973 59.8691 16.6816 59.6816 16.6504C59.4902 16.7559 59.3438 16.873 59.2422 17.002C59.1445 17.1309 59.0957 17.2793 59.0957 17.4473C59.0957 17.5723 59.1328 17.6719 59.207 17.7461C59.2852 17.8203 59.3965 17.875 59.541 17.9102C59.6855 17.9414 59.8594 17.957 60.0625 17.957H61.1934C61.8926 17.957 62.4277 18.1035 62.7988 18.3965C63.1738 18.6895 63.3613 19.1172 63.3613 19.6797C63.3613 20.3906 63.0723 20.9355 62.4941 21.3145C61.916 21.6934 61.0801 21.8828 59.9863 21.8828ZM60.0156 21.1211C60.5469 21.1211 60.9863 21.0664 61.334 20.957C61.6855 20.8516 61.9473 20.6973 62.1191 20.4941C62.2949 20.2949 62.3828 20.0566 62.3828 19.7793C62.3828 19.5215 62.3242 19.3262 62.207 19.1934C62.0898 19.0645 61.918 18.9785 61.6914 18.9355C61.4648 18.8887 61.1875 18.8652 60.8594 18.8652H59.7461C59.457 18.8652 59.2051 18.9102 58.9902 19C58.7754 19.0898 58.6094 19.2227 58.4922 19.3984C58.3789 19.5742 58.3223 19.793 58.3223 20.0547C58.3223 20.4023 58.4688 20.666 58.7617 20.8457C59.0547 21.0293 59.4727 21.1211 60.0156 21.1211ZM60.2676 15.9883C60.7324 15.9883 61.082 15.8711 61.3164 15.6367C61.5508 15.4023 61.668 15.0605 61.668 14.6113C61.668 14.1309 61.5488 13.7715 61.3105 13.5332C61.0723 13.291 60.7207 13.1699 60.2559 13.1699C59.8105 13.1699 59.4668 13.2949 59.2246 13.5449C58.9863 13.791 58.8672 14.1523 58.8672 14.6289C58.8672 15.0664 58.9883 15.4023 59.2305 15.6367C59.4727 15.8711 59.8184 15.9883 60.2676 15.9883ZM65.6875 19H64.709V9.88281H65.6875V19ZM70.2168 12.4609C70.7637 12.4609 71.2324 12.582 71.623 12.8242C72.0137 13.0664 72.3125 13.4062 72.5195 13.8438C72.7266 14.2773 72.8301 14.7852 72.8301 15.3672V15.9707H68.3945C68.4062 16.7246 68.5938 17.2988 68.957 17.6934C69.3203 18.0879 69.832 18.2852 70.4922 18.2852C70.8984 18.2852 71.2578 18.248 71.5703 18.1738C71.8828 18.0996 72.207 17.9902 72.543 17.8457V18.7012C72.2188 18.8457 71.8965 18.9512 71.5762 19.0176C71.2598 19.084 70.8848 19.1172 70.4512 19.1172C69.834 19.1172 69.2949 18.9922 68.834 18.7422C68.377 18.4883 68.0215 18.1172 67.7676 17.6289C67.5137 17.1406 67.3867 16.543 67.3867 15.8359C67.3867 15.1445 67.502 14.5469 67.7324 14.043C67.9668 13.5352 68.2949 13.1445 68.7168 12.8711C69.1426 12.5977 69.6426 12.4609 70.2168 12.4609ZM70.2051 13.2578C69.6855 13.2578 69.2715 13.4277 68.9629 13.7676C68.6543 14.1074 68.4707 14.582 68.4121 15.1914H71.8105C71.8066 14.8086 71.7461 14.4727 71.6289 14.1836C71.5156 13.8906 71.3418 13.6641 71.1074 13.5039C70.873 13.3398 70.5723 13.2578 70.2051 13.2578Z" fill="black"/>
</svg>
