<svg width="19" height="18" viewBox="0 0 19 18" fill="none" xmlns="http://www.w3.org/2000/svg">
<path d="M9.5 17.5375C9.20666 17.5372 8.92021 17.4485 8.67793 17.2831C5.08867 14.8466 3.5345 13.176 2.67726 12.1315C0.850438 9.90505 -0.024155 7.61923 0.000507135 5.14388C0.0292796 2.30728 2.30505 0 5.0736 0C7.08676 0 8.48109 1.134 9.29311 2.07847C9.31884 2.10809 9.35062 2.13184 9.38631 2.14811C9.422 2.16439 9.46077 2.17281 9.5 2.17281C9.53923 2.17281 9.578 2.16439 9.61369 2.14811C9.64938 2.13184 9.68117 2.10809 9.70689 2.07847C10.5189 1.13309 11.9132 0 13.9264 0C16.695 0 18.9707 2.30728 18.9995 5.14434C19.0242 7.62014 18.1486 9.90596 16.3227 12.1319C15.4655 13.1764 13.9113 14.8471 10.3221 17.2836C10.0797 17.4488 9.7933 17.5373 9.5 17.5375Z" fill="#FF0000"/>
</svg>
