<svg width="15" height="18" viewBox="0 0 15 18" fill="none" xmlns="http://www.w3.org/2000/svg">
<path d="M14.375 2.5H10.625V1.5625C10.625 1.1481 10.4604 0.750671 10.1674 0.457646C9.87433 0.16462 9.4769 0 9.0625 0H5.9375C5.5231 0 5.12567 0.16462 4.83265 0.457646C4.53962 0.750671 4.375 1.1481 4.375 1.5625V2.5H0.625C0.45924 2.5 0.300269 2.56585 0.183058 2.68306C0.0658481 2.80027 0 2.95924 0 3.125C0 3.29076 0.0658481 3.44973 0.183058 3.56694C0.300269 3.68415 0.45924 3.75 0.625 3.75H1.28906L2.03125 15.6609C2.08672 16.7098 2.89062 17.5 3.90625 17.5H11.0938C12.1145 17.5 12.9023 16.7273 12.9688 15.6641L13.7109 3.75H14.375C14.5408 3.75 14.6997 3.68415 14.8169 3.56694C14.9342 3.44973 15 3.29076 15 3.125C15 2.95924 14.9342 2.80027 14.8169 2.68306C14.6997 2.56585 14.5408 2.5 14.375 2.5ZM5.02227 15H5C4.83803 15.0001 4.68234 14.9373 4.56575 14.8249C4.44916 14.7124 4.38077 14.5591 4.375 14.3973L4.0625 5.64727C4.05659 5.48151 4.11678 5.32019 4.22981 5.1988C4.34285 5.07742 4.49947 5.00591 4.66523 5C4.83099 4.99409 4.99231 5.05428 5.1137 5.16731C5.23508 5.28035 5.30659 5.43697 5.3125 5.60273L5.625 14.3527C5.62798 14.4348 5.61474 14.5167 5.58605 14.5937C5.55737 14.6706 5.51379 14.7412 5.45781 14.8013C5.40183 14.8614 5.33455 14.9099 5.25981 14.944C5.18508 14.9781 5.10436 14.9971 5.02227 15ZM8.125 14.375C8.125 14.5408 8.05915 14.6997 7.94194 14.8169C7.82473 14.9342 7.66576 15 7.5 15C7.33424 15 7.17527 14.9342 7.05806 14.8169C6.94085 14.6997 6.875 14.5408 6.875 14.375V5.625C6.875 5.45924 6.94085 5.30027 7.05806 5.18306C7.17527 5.06585 7.33424 5 7.5 5C7.66576 5 7.82473 5.06585 7.94194 5.18306C8.05915 5.30027 8.125 5.45924 8.125 5.625V14.375ZM9.375 2.5H5.625V1.5625C5.62453 1.52133 5.63229 1.48048 5.64783 1.44236C5.66337 1.40423 5.68637 1.36959 5.71548 1.34048C5.74459 1.31137 5.77923 1.28837 5.81736 1.27283C5.85548 1.25729 5.89633 1.24953 5.9375 1.25H9.0625C9.10367 1.24953 9.14452 1.25729 9.18264 1.27283C9.22077 1.28837 9.25541 1.31137 9.28452 1.34048C9.31363 1.36959 9.33664 1.40423 9.35217 1.44236C9.36771 1.48048 9.37547 1.52133 9.375 1.5625V2.5ZM10.625 14.3973C10.6192 14.5591 10.5508 14.7124 10.4343 14.8249C10.3177 14.9373 10.162 15.0001 10 15H9.97734C9.89529 14.9971 9.8146 14.978 9.73992 14.9439C9.66523 14.9098 9.59799 14.8613 9.54206 14.8012C9.48612 14.7411 9.44257 14.6705 9.41391 14.5936C9.38524 14.5166 9.37202 14.4348 9.375 14.3527L9.6875 5.60273C9.69042 5.52066 9.70949 5.43996 9.7436 5.36525C9.77771 5.29054 9.8262 5.22328 9.8863 5.16731C9.94641 5.11134 10.0169 5.06776 10.0939 5.03905C10.1708 5.01035 10.2527 4.99708 10.3348 5C10.4168 5.00292 10.4975 5.02199 10.5722 5.0561C10.647 5.09021 10.7142 5.1387 10.7702 5.1988C10.8262 5.25891 10.8697 5.32945 10.8984 5.40639C10.9272 5.48334 10.9404 5.56519 10.9375 5.64727L10.625 14.3973Z" fill="black"/>
</svg>
