<svg width="220" height="28" viewBox="0 0 220 28" fill="none" xmlns="http://www.w3.org/2000/svg">
<rect x="0.5" y="0.5" width="219" height="27" rx="3.5" stroke="black"/>
<path d="M89.4375 20V8.57812H91.8594V18H96.4922V20H89.4375ZM106.234 15.6172C106.234 16.3464 106.135 16.9922 105.938 17.5547C105.745 18.1172 105.461 18.5938 105.086 18.9844C104.716 19.3698 104.268 19.6615 103.742 19.8594C103.221 20.0573 102.633 20.1562 101.977 20.1562C101.362 20.1562 100.797 20.0573 100.281 19.8594C99.7708 19.6615 99.3255 19.3698 98.9453 18.9844C98.5703 18.5938 98.2786 18.1172 98.0703 17.5547C97.8672 16.9922 97.7656 16.3464 97.7656 15.6172C97.7656 14.6484 97.9375 13.8281 98.2812 13.1562C98.625 12.4844 99.1146 11.974 99.75 11.625C100.385 11.276 101.143 11.1016 102.023 11.1016C102.841 11.1016 103.565 11.276 104.195 11.625C104.831 11.974 105.328 12.4844 105.688 13.1562C106.052 13.8281 106.234 14.6484 106.234 15.6172ZM100.195 15.6172C100.195 16.1901 100.258 16.6719 100.383 17.0625C100.508 17.4531 100.703 17.7474 100.969 17.9453C101.234 18.1432 101.581 18.2422 102.008 18.2422C102.43 18.2422 102.771 18.1432 103.031 17.9453C103.297 17.7474 103.49 17.4531 103.609 17.0625C103.734 16.6719 103.797 16.1901 103.797 15.6172C103.797 15.0391 103.734 14.5599 103.609 14.1797C103.49 13.7943 103.297 13.5052 103.031 13.3125C102.766 13.1198 102.419 13.0234 101.992 13.0234C101.362 13.0234 100.904 13.2396 100.617 13.6719C100.336 14.1042 100.195 14.7526 100.195 15.6172ZM110.758 23.8438C109.539 23.8438 108.607 23.6302 107.961 23.2031C107.32 22.7812 107 22.1875 107 21.4219C107 20.8958 107.164 20.4557 107.492 20.1016C107.82 19.7474 108.302 19.4948 108.938 19.3438C108.693 19.2396 108.479 19.0703 108.297 18.8359C108.115 18.5964 108.023 18.3438 108.023 18.0781C108.023 17.7448 108.12 17.4688 108.312 17.25C108.505 17.026 108.784 16.8073 109.148 16.5938C108.69 16.3958 108.326 16.0781 108.055 15.6406C107.789 15.2031 107.656 14.6875 107.656 14.0938C107.656 13.4583 107.794 12.9193 108.07 12.4766C108.352 12.0286 108.758 11.6875 109.289 11.4531C109.826 11.2188 110.477 11.1016 111.242 11.1016C111.404 11.1016 111.591 11.112 111.805 11.1328C112.018 11.1536 112.214 11.1771 112.391 11.2031C112.573 11.2292 112.695 11.25 112.758 11.2656H115.805V12.4766L114.438 12.8281C114.562 13.0208 114.656 13.2266 114.719 13.4453C114.781 13.6641 114.812 13.8958 114.812 14.1406C114.812 15.0781 114.484 15.8099 113.828 16.3359C113.177 16.8568 112.271 17.1172 111.109 17.1172C110.833 17.1016 110.573 17.0807 110.328 17.0547C110.208 17.1484 110.117 17.2474 110.055 17.3516C109.992 17.4557 109.961 17.5651 109.961 17.6797C109.961 17.7943 110.008 17.8906 110.102 17.9688C110.201 18.0417 110.346 18.099 110.539 18.1406C110.737 18.1771 110.982 18.1953 111.273 18.1953H112.758C113.716 18.1953 114.445 18.401 114.945 18.8125C115.451 19.224 115.703 19.8281 115.703 20.625C115.703 21.6458 115.276 22.4375 114.422 23C113.573 23.5625 112.352 23.8438 110.758 23.8438ZM110.859 22.2891C111.427 22.2891 111.914 22.2344 112.32 22.125C112.732 22.0208 113.047 21.8698 113.266 21.6719C113.484 21.4792 113.594 21.2474 113.594 20.9766C113.594 20.7578 113.529 20.5833 113.398 20.4531C113.273 20.3281 113.081 20.2396 112.82 20.1875C112.565 20.1354 112.237 20.1094 111.836 20.1094H110.602C110.31 20.1094 110.047 20.1562 109.812 20.25C109.583 20.3438 109.401 20.474 109.266 20.6406C109.13 20.8125 109.062 21.0104 109.062 21.2344C109.062 21.5625 109.219 21.8203 109.531 22.0078C109.849 22.1953 110.292 22.2891 110.859 22.2891ZM111.242 15.6641C111.69 15.6641 112.018 15.526 112.227 15.25C112.435 14.974 112.539 14.599 112.539 14.125C112.539 13.599 112.43 13.2057 112.211 12.9453C111.997 12.6797 111.674 12.5469 111.242 12.5469C110.805 12.5469 110.477 12.6797 110.258 12.9453C110.039 13.2057 109.93 13.599 109.93 14.125C109.93 14.599 110.036 14.974 110.25 15.25C110.469 15.526 110.799 15.6641 111.242 15.6641ZM119.633 11.2656V20H117.25V11.2656H119.633ZM118.445 7.84375C118.799 7.84375 119.104 7.92708 119.359 8.09375C119.615 8.25521 119.742 8.5599 119.742 9.00781C119.742 9.45052 119.615 9.75781 119.359 9.92969C119.104 10.0964 118.799 10.1797 118.445 10.1797C118.086 10.1797 117.779 10.0964 117.523 9.92969C117.273 9.75781 117.148 9.45052 117.148 9.00781C117.148 8.5599 117.273 8.25521 117.523 8.09375C117.779 7.92708 118.086 7.84375 118.445 7.84375ZM127.102 11.1016C128.034 11.1016 128.784 11.3568 129.352 11.8672C129.919 12.3724 130.203 13.1849 130.203 14.3047V20H127.82V14.8984C127.82 14.2734 127.706 13.8021 127.477 13.4844C127.253 13.1667 126.898 13.0078 126.414 13.0078C125.685 13.0078 125.188 13.2552 124.922 13.75C124.656 14.2448 124.523 14.9583 124.523 15.8906V20H122.141V11.2656H123.961L124.281 12.3828H124.414C124.602 12.0807 124.833 11.8359 125.109 11.6484C125.391 11.4609 125.701 11.3229 126.039 11.2344C126.383 11.1458 126.737 11.1016 127.102 11.1016Z" fill="black"/>
</svg>
