<svg width="164" height="92" viewBox="0 0 164 92" fill="none" xmlns="http://www.w3.org/2000/svg">
<path d="M12.3796 63.3155C11.4671 63.3155 10.6572 63.495 9.94981 63.8538C9.25266 64.2024 8.66315 64.7098 8.1813 65.3762C7.70969 66.0426 7.35086 66.8474 7.10481 67.7906C6.85876 68.7339 6.73573 69.795 6.73573 70.974C6.73573 72.5631 6.93052 73.9215 7.32011 75.0492C7.71994 76.1667 8.33508 77.0228 9.16551 77.6174C9.99594 78.2018 11.0673 78.494 12.3796 78.494C13.292 78.494 14.2045 78.3915 15.1169 78.1864C16.0396 77.9814 17.0392 77.6892 18.1157 77.3099V81.3082C17.1213 81.7183 16.1422 82.0105 15.1785 82.1848C14.2147 82.3694 13.1331 82.4616 11.9336 82.4616C9.61661 82.4616 7.70969 81.9849 6.21286 81.0314C4.72629 80.0677 3.62417 78.7247 2.90651 77.0023C2.18886 75.2697 1.83003 73.25 1.83003 70.9432C1.83003 69.2413 2.0607 67.683 2.52205 66.2682C2.98341 64.8534 3.66005 63.6282 4.552 62.5928C5.44395 61.5573 6.54606 60.7576 7.85835 60.1937C9.17064 59.6299 10.6777 59.3479 12.3796 59.3479C13.4971 59.3479 14.6146 59.4915 15.7321 59.7785C16.8598 60.0553 17.9363 60.4398 18.9615 60.9319L17.4237 64.8072C16.583 64.4074 15.7372 64.0588 14.8863 63.7615C14.0353 63.4642 13.1998 63.3155 12.3796 63.3155ZM27.2351 58.2253V63.1002C27.2351 63.9512 27.2043 64.7611 27.1428 65.53C27.0916 66.2989 27.0506 66.8423 27.0198 67.1601H27.2659C27.6349 66.5655 28.0707 66.0836 28.573 65.7146C29.0856 65.3455 29.6495 65.0738 30.2646 64.8995C30.8798 64.7252 31.5411 64.6381 32.2485 64.6381C33.489 64.6381 34.5706 64.8585 35.4933 65.2994C36.416 65.7299 37.1337 66.4117 37.6463 67.3447C38.1589 68.2674 38.4152 69.4669 38.4152 70.9432V82.1541H33.7248V72.112C33.7248 70.8817 33.4992 69.9539 33.0481 69.3285C32.597 68.7031 31.8999 68.3904 30.9567 68.3904C30.0135 68.3904 29.2702 68.6108 28.7268 69.0517C28.1834 69.4823 27.799 70.123 27.5734 70.974C27.3479 71.8147 27.2351 72.845 27.2351 74.065V82.1541H22.5447V58.2253H27.2351ZM50.2873 64.6073C52.594 64.6073 54.3626 65.1097 55.5928 66.1144C56.8231 67.1191 57.4382 68.6467 57.4382 70.6972V82.1541H54.1626L53.2553 79.8165H53.1323C52.6402 80.4317 52.1378 80.934 51.6252 81.3236C51.1126 81.7132 50.5231 82.0003 49.8567 82.1848C49.1903 82.3694 48.3804 82.4616 47.4269 82.4616C46.4119 82.4616 45.4995 82.2668 44.6896 81.8772C43.8899 81.4877 43.2594 80.893 42.798 80.0934C42.3367 79.2834 42.106 78.2582 42.106 77.0177C42.106 75.1928 42.7468 73.8497 44.0283 72.9885C45.3098 72.1171 47.2321 71.6352 49.7952 71.543L52.7786 71.4507V70.6972C52.7786 69.795 52.5428 69.1337 52.0712 68.7134C51.5996 68.293 50.9434 68.0828 50.1028 68.0828C49.2723 68.0828 48.4573 68.2007 47.6576 68.4365C46.8579 68.6723 46.0582 68.9697 45.2586 69.3285L43.7053 66.1605C44.6178 65.6787 45.6379 65.2994 46.7656 65.0225C47.9036 64.7457 49.0775 64.6073 50.2873 64.6073ZM52.7786 74.1881L50.9639 74.2496C49.4466 74.2906 48.3906 74.5623 47.796 75.0646C47.2116 75.567 46.9194 76.2283 46.9194 77.0484C46.9194 77.7661 47.1296 78.2787 47.5499 78.5863C47.9703 78.8836 48.5188 79.0322 49.1954 79.0322C50.2001 79.0322 51.046 78.7349 51.7329 78.1403C52.43 77.5457 52.7786 76.6999 52.7786 75.6029V74.1881ZM66.9728 64.961V82.1541H62.2824V64.961H66.9728ZM64.6353 58.2253C65.3325 58.2253 65.9322 58.3893 66.4346 58.7174C66.9369 59.0352 67.1881 59.635 67.1881 60.5167C67.1881 61.3881 66.9369 61.993 66.4346 62.3313C65.9322 62.6594 65.3325 62.8234 64.6353 62.8234C63.9279 62.8234 63.323 62.6594 62.8207 62.3313C62.3286 61.993 62.0825 61.3881 62.0825 60.5167C62.0825 59.635 62.3286 59.0352 62.8207 58.7174C63.323 58.3893 63.9279 58.2253 64.6353 58.2253ZM81.5054 64.6381C81.7412 64.6381 82.0129 64.6535 82.3204 64.6842C82.6383 64.7047 82.8946 64.7355 83.0894 64.7765L82.7357 69.1747C82.5819 69.1234 82.3615 69.0876 82.0744 69.0671C81.7976 69.0363 81.5567 69.0209 81.3516 69.0209C80.7467 69.0209 80.1572 69.0978 79.5831 69.2516C79.0192 69.4054 78.5117 69.6566 78.0606 70.0051C77.6095 70.3435 77.2507 70.7946 76.9842 71.3584C76.7278 71.9121 76.5997 72.5938 76.5997 73.4038V82.1541H71.9093V64.961H75.4617L76.1537 67.8522H76.3844C76.7227 67.2678 77.1431 66.7347 77.6454 66.2528C78.158 65.7607 78.7373 65.3711 79.3832 65.0841C80.0393 64.7867 80.7467 64.6381 81.5054 64.6381Z" fill="black"/>
<path d="M101.137 75.9104C101.137 77.2432 100.814 78.4017 100.169 79.3859C99.5227 80.3702 98.5795 81.1288 97.339 81.6619C96.1087 82.1951 94.6119 82.4616 92.8485 82.4616C92.0693 82.4616 91.3055 82.4104 90.5571 82.3078C89.8189 82.2053 89.1064 82.0567 88.4195 81.8619C87.7428 81.6568 87.097 81.4056 86.4818 81.1083V76.6794C87.5481 77.151 88.6553 77.5764 89.8036 77.9558C90.9518 78.3351 92.0898 78.5248 93.2176 78.5248C93.9967 78.5248 94.6221 78.4222 95.0937 78.2172C95.5756 78.0121 95.9241 77.7302 96.1394 77.3714C96.3547 77.0125 96.4624 76.6025 96.4624 76.1411C96.4624 75.5772 96.2727 75.0954 95.8934 74.6955C95.5141 74.2957 94.9912 73.9215 94.3248 73.5729C93.6687 73.2243 92.9254 72.8501 92.0949 72.4503C91.5721 72.2042 91.0031 71.9069 90.3879 71.5584C89.7728 71.1995 89.1884 70.7638 88.6348 70.2512C88.0812 69.7386 87.6249 69.1183 87.2661 68.3904C86.9175 67.6522 86.7433 66.7706 86.7433 65.7453C86.7433 64.4023 87.0508 63.254 87.666 62.3006C88.2811 61.3471 89.1577 60.6192 90.2957 60.1168C91.4439 59.6042 92.7972 59.3479 94.3556 59.3479C95.5243 59.3479 96.6367 59.4863 97.6927 59.7631C98.7589 60.0297 99.8713 60.4193 101.03 60.9319L99.4919 64.6381C98.4565 64.2177 97.5286 63.8948 96.7084 63.6692C95.8883 63.4334 95.0527 63.3155 94.2018 63.3155C93.6071 63.3155 93.0997 63.4129 92.6793 63.6077C92.259 63.7923 91.9411 64.0588 91.7258 64.4074C91.5106 64.7457 91.4029 65.1404 91.4029 65.5915C91.4029 66.1247 91.5567 66.5758 91.8643 66.9448C92.1821 67.3037 92.6537 67.6522 93.2791 67.9906C93.9147 68.3289 94.7041 68.7236 95.6473 69.1747C96.7956 69.7181 97.7747 70.2871 98.5846 70.8817C99.4048 71.4661 100.035 72.1581 100.476 72.9578C100.917 73.7472 101.137 74.7314 101.137 75.9104ZM109.534 58.2253V63.1002C109.534 63.9512 109.503 64.7611 109.442 65.53C109.39 66.2989 109.349 66.8423 109.319 67.1601H109.565C109.934 66.5655 110.37 66.0836 110.872 65.7146C111.385 65.3455 111.948 65.0738 112.564 64.8995C113.179 64.7252 113.84 64.6381 114.547 64.6381C115.788 64.6381 116.869 64.8585 117.792 65.2994C118.715 65.7299 119.433 66.4117 119.945 67.3447C120.458 68.2674 120.714 69.4669 120.714 70.9432V82.1541H116.024V72.112C116.024 70.8817 115.798 69.9539 115.347 69.3285C114.896 68.7031 114.199 68.3904 113.256 68.3904C112.312 68.3904 111.569 68.6108 111.026 69.0517C110.482 69.4823 110.098 70.123 109.872 70.974C109.647 71.8147 109.534 72.845 109.534 74.065V82.1541H104.844V58.2253H109.534ZM141.167 73.5268C141.167 74.9621 140.973 76.2334 140.583 77.3406C140.204 78.4479 139.645 79.3859 138.907 80.1549C138.179 80.9135 137.297 81.4877 136.262 81.8772C135.236 82.2668 134.078 82.4616 132.786 82.4616C131.576 82.4616 130.464 82.2668 129.449 81.8772C128.444 81.4877 127.568 80.9135 126.819 80.1549C126.081 79.3859 125.507 78.4479 125.097 77.3406C124.697 76.2334 124.497 74.9621 124.497 73.5268C124.497 71.6199 124.835 70.0051 125.512 68.6826C126.189 67.3601 127.153 66.3553 128.403 65.6684C129.654 64.9815 131.146 64.6381 132.878 64.6381C134.488 64.6381 135.913 64.9815 137.154 65.6684C138.404 66.3553 139.383 67.3601 140.091 68.6826C140.809 70.0051 141.167 71.6199 141.167 73.5268ZM129.28 73.5268C129.28 74.6545 129.403 75.6029 129.649 76.3718C129.895 77.1407 130.279 77.72 130.802 78.1095C131.325 78.4991 132.007 78.6939 132.848 78.6939C133.678 78.6939 134.35 78.4991 134.862 78.1095C135.385 77.72 135.764 77.1407 136 76.3718C136.246 75.6029 136.369 74.6545 136.369 73.5268C136.369 72.3888 136.246 71.4456 136 70.6972C135.764 69.9385 135.385 69.3695 134.862 68.9902C134.339 68.6108 133.658 68.4212 132.817 68.4212C131.576 68.4212 130.674 68.8466 130.11 69.6976C129.557 70.5485 129.28 71.8249 129.28 73.5268ZM154.608 64.6381C156.546 64.6381 158.109 65.3916 159.298 66.8987C160.498 68.4058 161.098 70.6151 161.098 73.5268C161.098 75.4747 160.816 77.1151 160.252 78.4479C159.688 79.7704 158.909 80.77 157.914 81.4466C156.92 82.1233 155.777 82.4616 154.485 82.4616C153.655 82.4616 152.942 82.3591 152.347 82.1541C151.753 81.9388 151.245 81.6671 150.825 81.339C150.405 81.0007 150.041 80.6418 149.733 80.2625H149.487C149.569 80.6726 149.631 81.0929 149.672 81.5235C149.713 81.9541 149.733 82.3745 149.733 82.7846V89.7202H145.043V64.961H148.857L149.518 67.1909H149.733C150.041 66.7295 150.415 66.3041 150.856 65.9145C151.297 65.5249 151.825 65.2173 152.44 64.9918C153.065 64.756 153.788 64.6381 154.608 64.6381ZM153.101 68.3904C152.281 68.3904 151.63 68.5596 151.148 68.8979C150.666 69.2362 150.312 69.7437 150.087 70.4204C149.871 71.097 149.754 71.9531 149.733 72.9885V73.496C149.733 74.6033 149.836 75.5414 150.041 76.3103C150.256 77.0792 150.61 77.6636 151.102 78.0634C151.604 78.4632 152.291 78.6632 153.162 78.6632C153.88 78.6632 154.47 78.4632 154.931 78.0634C155.392 77.6636 155.736 77.0792 155.961 76.3103C156.197 75.5311 156.315 74.5828 156.315 73.4653C156.315 71.7839 156.054 70.5177 155.531 69.6668C155.008 68.8159 154.198 68.3904 153.101 68.3904Z" fill="black"/>
<path d="M103.933 44.0928H102.752C102.648 44.0928 102.548 44.0513 102.474 43.9775C102.4 43.9037 102.359 43.8035 102.359 43.6991V26.9192C102.36 26.8566 102.345 26.7946 102.318 26.7385C102.29 26.6824 102.249 26.6338 102.198 26.5966C102.148 26.5595 102.089 26.5349 102.028 26.5249C101.966 26.515 101.902 26.5199 101.843 26.5393C100.94 26.8232 100.002 26.9815 99.0556 27.0098C98.9395 27.0098 98.8292 27.0147 98.721 27.0147C96.9009 27.019 95.1101 26.5568 93.5194 25.6722C93.399 25.6053 93.2635 25.5701 93.1257 25.5701C92.9879 25.5701 92.8524 25.6053 92.732 25.6722C91.1417 26.5568 89.3512 27.019 87.5314 27.0147C85.7218 27.0172 83.9426 26.5495 82.3682 25.6575C82.2468 25.5887 82.1096 25.5526 81.9701 25.5526C81.8306 25.5526 81.6934 25.5887 81.572 25.6575C79.9739 26.5529 78.1717 27.0207 76.3399 27.0157C74.5182 27.0169 72.7277 26.5419 71.1462 25.6378C71.0238 25.5681 70.8854 25.5315 70.7446 25.5315C70.6038 25.5315 70.4654 25.5681 70.3431 25.6378C68.7615 26.5419 66.9711 27.0169 65.1493 27.0157C65.0421 27.0157 64.9338 27.0157 64.8177 27.0107H64.8118C63.8323 26.9814 62.8619 26.8127 61.93 26.5098C61.871 26.4907 61.8083 26.4859 61.747 26.4956C61.6858 26.5054 61.6277 26.5294 61.5775 26.5659C61.5273 26.6024 61.4865 26.6502 61.4583 26.7054C61.4301 26.7606 61.4153 26.8218 61.4152 26.8838V43.6991C61.4152 43.8035 61.3738 43.9037 61.2999 43.9775C61.2261 44.0513 61.126 44.0928 61.0215 44.0928H59.8897C59.0393 44.0928 58.3051 44.7463 58.2677 45.5967C58.2581 45.8092 58.2917 46.0215 58.3664 46.2206C58.4412 46.4198 58.5555 46.6018 58.7024 46.7556C58.8494 46.9094 59.026 47.0318 59.2216 47.1154C59.4172 47.1991 59.6278 47.2422 59.8405 47.2423H103.884C104.735 47.2423 105.469 46.5888 105.506 45.7384C105.516 45.5259 105.482 45.3136 105.407 45.1145C105.333 44.9153 105.218 44.7333 105.071 44.5795C104.924 44.4257 104.748 44.3033 104.552 44.2197C104.357 44.136 104.146 44.0929 103.933 44.0928ZM78.7374 37.4001C78.7374 37.5045 78.696 37.6047 78.6221 37.6785C78.5483 37.7523 78.4482 37.7938 78.3438 37.7938H69.6826C69.5782 37.7938 69.4781 37.7523 69.4043 37.6785C69.3304 37.6047 69.289 37.5045 69.289 37.4001V31.1012C69.289 30.7879 69.4134 30.4875 69.6349 30.266C69.8564 30.0445 70.1568 29.9201 70.47 29.9201H77.5564C77.8696 29.9201 78.17 30.0445 78.3915 30.266C78.613 30.4875 78.7374 30.7879 78.7374 31.1012V37.4001ZM94.0912 44.0928H87.0049C86.9004 44.0928 86.8003 44.0513 86.7265 43.9775C86.6526 43.9037 86.6112 43.8035 86.6112 43.6991V31.1012C86.6112 30.7879 86.7356 30.4875 86.9571 30.266C87.1786 30.0445 87.479 29.9201 87.7922 29.9201H93.3038C93.6171 29.9201 93.9175 30.0445 94.139 30.266C94.3605 30.4875 94.4849 30.7879 94.4849 31.1012V43.6991C94.4849 43.8035 94.4434 43.9037 94.3696 43.9775C94.2958 44.0513 94.1956 44.0928 94.0912 44.0928ZM105.171 16.7592L100.946 7.06561C99.84 4.68676 97.3135 3.14941 94.5095 3.14941H69.2594C66.4554 3.14941 63.9289 4.68676 62.8227 7.06561L58.5984 16.7592C57.7126 18.6695 58.8828 20.6311 58.8838 20.632L58.9114 20.6763C58.9596 20.7531 59.0452 20.8732 59.0974 20.9499C59.1023 20.9559 59.1063 20.9627 59.1112 20.9696L59.6033 21.5651C59.6217 21.5876 59.6414 21.6089 59.6623 21.6291L60.1545 22.1044L60.1958 22.1399C60.4848 22.3876 60.7939 22.6108 61.12 22.8072V22.8121C62.1911 23.4609 63.4114 23.8226 64.6631 23.8622H64.9062C66.8001 23.8658 68.625 23.1515 70.0133 21.8633L70.0458 21.8328C70.1908 21.6962 70.3825 21.6201 70.5817 21.6201C70.7809 21.6201 70.9726 21.6962 71.1176 21.8328L71.1501 21.8633C72.5532 23.1493 74.3874 23.8627 76.2907 23.8627C78.194 23.8627 80.0281 23.1493 81.4312 21.8633C81.5768 21.7285 81.7678 21.6537 81.9662 21.6537C82.1645 21.6537 82.3555 21.7285 82.5011 21.8633C83.9 23.1452 85.7275 23.8582 87.625 23.8624C89.5224 23.8666 91.353 23.1617 92.7576 21.8859C92.901 21.7531 93.0892 21.6793 93.2846 21.6793C93.4801 21.6793 93.6683 21.7531 93.8117 21.8859C95.2178 23.1695 97.0564 23.8753 98.9601 23.8622H99.2052C100.425 23.8167 101.613 23.4537 102.65 22.8091C102.743 22.753 102.833 22.694 102.924 22.6349C103.623 22.1634 104.232 21.5696 104.721 20.882L104.892 20.6232C104.909 20.5969 104.925 20.5694 104.939 20.5405C105.103 20.2078 105.979 18.4973 105.171 16.7592Z" fill="#B6EB7A"/>
</svg>
