<svg width="16" height="16" viewBox="0 0 16 16" fill="none" xmlns="http://www.w3.org/2000/svg">
<path fill-rule="evenodd" clip-rule="evenodd" d="M2.30448 4.46927C2 5.20435 2 6.13623 2 8C2 9.86377 2 10.7956 2.30448 11.5307C2.71046 12.5108 3.48915 13.2895 4.46927 13.6955C5.20435 14 6.13623 14 8 14C9.86377 14 10.7956 14 11.5307 13.6955C12.5108 13.2895 13.2895 12.5108 13.6955 11.5307C14 10.7956 14 9.86377 14 8C14 6.13623 14 5.20435 13.6955 4.46927C13.2895 3.48915 12.5108 2.71046 11.5307 2.30448C10.7956 2 9.86377 2 8 2C6.13623 2 5.20435 2 4.46927 2.30448C3.48915 2.71046 2.71046 3.48915 2.30448 4.46927ZM7 4.66667V7L4.66667 7V9H7V11.3333H9V9H11.3333V7H9L9 4.66667H7Z" fill="#114F5A"/>
</svg>
