<svg width="32" height="32" viewBox="0 0 32 32" fill="none" xmlns="http://www.w3.org/2000/svg">
<path fill-rule="evenodd" clip-rule="evenodd" d="M5.17157 5.17157C4 6.34315 4 8.22876 4 12V20C4 23.7712 4 25.6569 5.17157 26.8284C6.34315 28 8.22876 28 12 28H20C23.7712 28 25.6569 28 26.8284 26.8284C28 25.6569 28 23.7712 28 20V12C28 8.22876 28 6.34315 26.8284 5.17157C25.6569 4 23.7712 4 20 4H12C8.22876 4 6.34315 4 5.17157 5.17157ZM15 9.33333V15L9.33333 15V17L15 17V22.6667H17V17H22.6667V15H17V9.33333H15Z" fill="#114F5A"/>
<rect x="15" y="17" width="4" height="7" fill="#114F5A"/>
<rect x="15" y="8" width="4" height="7" fill="#114F5A"/>
</svg>
