<svg width="220" height="41" viewBox="0 0 220 41" fill="none" xmlns="http://www.w3.org/2000/svg">
<rect x="0.5" y="9.5" width="219" height="31" rx="3.5" stroke="black"/>
<rect x="12" width="58" height="20" fill="#F7F8FB"/>
<path d="M16.6152 4.43359C17.7207 4.43359 18.5273 4.66016 19.0352 5.11328C19.543 5.56641 19.7969 6.20117 19.7969 7.01758C19.7969 7.38867 19.7383 7.74219 19.6211 8.07812C19.5078 8.41016 19.3203 8.70508 19.0586 8.96289C18.7969 9.2168 18.4512 9.41797 18.0215 9.56641C17.5957 9.71484 17.0703 9.78906 16.4453 9.78906H15.5312V13H14.125V4.43359H16.6152ZM16.5215 5.59961H15.5312V8.61719H16.2988C16.7402 8.61719 17.1152 8.56641 17.4238 8.46484C17.7324 8.35938 17.9668 8.19336 18.127 7.9668C18.2871 7.74023 18.3672 7.44141 18.3672 7.07031C18.3672 6.57422 18.2168 6.20508 17.916 5.96289C17.6191 5.7207 17.1543 5.59961 16.5215 5.59961ZM23.9102 6.39062C24.7305 6.39062 25.3496 6.57227 25.7676 6.93555C26.1895 7.29883 26.4004 7.86523 26.4004 8.63477V13H25.4219L25.1582 12.0801H25.1113C24.9277 12.3145 24.7383 12.5078 24.543 12.6602C24.3477 12.8125 24.1211 12.9258 23.8633 13C23.6094 13.0781 23.2988 13.1172 22.9316 13.1172C22.5449 13.1172 22.1992 13.0469 21.8945 12.9062C21.5898 12.7617 21.3496 12.543 21.1738 12.25C20.998 11.957 20.9102 11.5859 20.9102 11.1367C20.9102 10.4688 21.1582 9.9668 21.6543 9.63086C22.1543 9.29492 22.9082 9.10938 23.916 9.07422L25.041 9.0332V8.69336C25.041 8.24414 24.9355 7.92383 24.7246 7.73242C24.5176 7.54102 24.2246 7.44531 23.8457 7.44531C23.5215 7.44531 23.207 7.49219 22.9023 7.58594C22.5977 7.67969 22.3008 7.79492 22.0117 7.93164L21.5664 6.95898C21.8828 6.79102 22.2422 6.6543 22.6445 6.54883C23.0508 6.44336 23.4727 6.39062 23.9102 6.39062ZM25.0352 9.90039L24.1973 9.92969C23.5098 9.95312 23.0273 10.0703 22.75 10.2812C22.4727 10.4922 22.334 10.7812 22.334 11.1484C22.334 11.4688 22.4297 11.7031 22.6211 11.8516C22.8125 11.9961 23.0645 12.0684 23.377 12.0684C23.8535 12.0684 24.248 11.9336 24.5605 11.6641C24.877 11.3906 25.0352 10.9902 25.0352 10.4629V9.90039ZM32.6875 11.1484C32.6875 11.5742 32.584 11.9336 32.377 12.2266C32.1699 12.5195 31.8672 12.7422 31.4688 12.8945C31.0742 13.043 30.5898 13.1172 30.0156 13.1172C29.5625 13.1172 29.1719 13.084 28.8438 13.0176C28.5195 12.9551 28.2129 12.8574 27.9238 12.7246V11.5352C28.2324 11.6797 28.5781 11.8047 28.9609 11.9102C29.3477 12.0156 29.7129 12.0684 30.0566 12.0684C30.5098 12.0684 30.8359 11.998 31.0352 11.8574C31.2344 11.7129 31.334 11.5215 31.334 11.2832C31.334 11.1426 31.293 11.0176 31.2109 10.9082C31.1328 10.7949 30.9844 10.6797 30.7656 10.5625C30.5508 10.4414 30.2344 10.2969 29.8164 10.1289C29.4062 9.96484 29.0605 9.80078 28.7793 9.63672C28.498 9.47266 28.2852 9.27539 28.1406 9.04492C27.9961 8.81055 27.9238 8.51172 27.9238 8.14844C27.9238 7.57422 28.1504 7.13867 28.6035 6.8418C29.0605 6.54102 29.6641 6.39062 30.4141 6.39062C30.8125 6.39062 31.1875 6.43164 31.5391 6.51367C31.8945 6.5918 32.2422 6.70703 32.582 6.85938L32.1484 7.89648C31.8555 7.76758 31.5605 7.66211 31.2637 7.58008C30.9707 7.49414 30.6719 7.45117 30.3672 7.45117C30.0117 7.45117 29.7402 7.50586 29.5527 7.61523C29.3691 7.72461 29.2773 7.88086 29.2773 8.08398C29.2773 8.23633 29.3223 8.36523 29.4121 8.4707C29.502 8.57617 29.6562 8.68164 29.875 8.78711C30.0977 8.89258 30.4062 9.02344 30.8008 9.17969C31.1875 9.32812 31.5215 9.48438 31.8027 9.64844C32.0879 9.80859 32.3066 10.0059 32.459 10.2402C32.6113 10.4746 32.6875 10.7773 32.6875 11.1484ZM38.5352 11.1484C38.5352 11.5742 38.4316 11.9336 38.2246 12.2266C38.0176 12.5195 37.7148 12.7422 37.3164 12.8945C36.9219 13.043 36.4375 13.1172 35.8633 13.1172C35.4102 13.1172 35.0195 13.084 34.6914 13.0176C34.3672 12.9551 34.0605 12.8574 33.7715 12.7246V11.5352C34.0801 11.6797 34.4258 11.8047 34.8086 11.9102C35.1953 12.0156 35.5605 12.0684 35.9043 12.0684C36.3574 12.0684 36.6836 11.998 36.8828 11.8574C37.082 11.7129 37.1816 11.5215 37.1816 11.2832C37.1816 11.1426 37.1406 11.0176 37.0586 10.9082C36.9805 10.7949 36.832 10.6797 36.6133 10.5625C36.3984 10.4414 36.082 10.2969 35.6641 10.1289C35.2539 9.96484 34.9082 9.80078 34.627 9.63672C34.3457 9.47266 34.1328 9.27539 33.9883 9.04492C33.8438 8.81055 33.7715 8.51172 33.7715 8.14844C33.7715 7.57422 33.998 7.13867 34.4512 6.8418C34.9082 6.54102 35.5117 6.39062 36.2617 6.39062C36.6602 6.39062 37.0352 6.43164 37.3867 6.51367C37.7422 6.5918 38.0898 6.70703 38.4297 6.85938L37.9961 7.89648C37.7031 7.76758 37.4082 7.66211 37.1113 7.58008C36.8184 7.49414 36.5195 7.45117 36.2148 7.45117C35.8594 7.45117 35.5879 7.50586 35.4004 7.61523C35.2168 7.72461 35.125 7.88086 35.125 8.08398C35.125 8.23633 35.1699 8.36523 35.2598 8.4707C35.3496 8.57617 35.5039 8.68164 35.7227 8.78711C35.9453 8.89258 36.2539 9.02344 36.6484 9.17969C37.0352 9.32812 37.3691 9.48438 37.6504 9.64844C37.9355 9.80859 38.1543 10.0059 38.3066 10.2402C38.459 10.4746 38.5352 10.7773 38.5352 11.1484ZM45.3262 12.9941L44.5059 9.97656C44.4668 9.82812 44.4199 9.64844 44.3652 9.4375C44.3105 9.22656 44.2559 9.00977 44.2012 8.78711C44.1465 8.56055 44.0957 8.35156 44.0488 8.16016C44.0059 7.96875 43.9727 7.82031 43.9492 7.71484H43.9023C43.8828 7.82031 43.8516 7.96875 43.8086 8.16016C43.7656 8.35156 43.7168 8.56055 43.6621 8.78711C43.6074 9.01367 43.5527 9.23438 43.498 9.44922C43.4473 9.66406 43.4004 9.84766 43.3574 10L42.4961 12.9941H40.9844L39.168 6.50781H40.5625L41.4062 9.73047C41.4609 9.94922 41.5137 10.1855 41.5645 10.4395C41.6191 10.6934 41.666 10.9355 41.7051 11.166C41.7441 11.3965 41.7734 11.5859 41.793 11.7344H41.8398C41.8555 11.6289 41.877 11.4961 41.9043 11.3359C41.9316 11.1719 41.9629 11.002 41.998 10.8262C42.0332 10.6465 42.0684 10.4785 42.1035 10.3223C42.1387 10.1621 42.1719 10.0332 42.2031 9.93555L43.1992 6.50781H44.7051L45.6602 9.93555C45.7031 10.084 45.75 10.2715 45.8008 10.498C45.8516 10.7207 45.8965 10.9453 45.9355 11.1719C45.9785 11.3945 46.0059 11.5801 46.0176 11.7285H46.0645C46.0801 11.5957 46.1074 11.416 46.1465 11.1895C46.1895 10.959 46.2383 10.7148 46.293 10.457C46.3477 10.1953 46.4043 9.95312 46.4629 9.73047L47.3242 6.50781H48.6953L46.8672 12.9941H45.3262ZM55.5508 9.74219C55.5508 10.2812 55.4805 10.7598 55.3398 11.1777C55.1992 11.5957 54.9941 11.9492 54.7246 12.2383C54.4551 12.5234 54.1309 12.7422 53.752 12.8945C53.373 13.043 52.9453 13.1172 52.4688 13.1172C52.0234 13.1172 51.6152 13.043 51.2441 12.8945C50.873 12.7422 50.5508 12.5234 50.2773 12.2383C50.0078 11.9492 49.7988 11.5957 49.6504 11.1777C49.502 10.7598 49.4277 10.2812 49.4277 9.74219C49.4277 9.02734 49.5508 8.42188 49.7969 7.92578C50.0469 7.42578 50.4023 7.04492 50.8633 6.7832C51.3242 6.52148 51.873 6.39062 52.5098 6.39062C53.1074 6.39062 53.6348 6.52148 54.0918 6.7832C54.5488 7.04492 54.9062 7.42578 55.1641 7.92578C55.4219 8.42578 55.5508 9.03125 55.5508 9.74219ZM50.8457 9.74219C50.8457 10.2148 50.9023 10.6191 51.0156 10.9551C51.1328 11.291 51.3125 11.5488 51.5547 11.7285C51.7969 11.9043 52.1094 11.9922 52.4922 11.9922C52.875 11.9922 53.1875 11.9043 53.4297 11.7285C53.6719 11.5488 53.8496 11.291 53.9629 10.9551C54.0762 10.6191 54.1328 10.2148 54.1328 9.74219C54.1328 9.26953 54.0762 8.86914 53.9629 8.54102C53.8496 8.20898 53.6719 7.95703 53.4297 7.78516C53.1875 7.60938 52.873 7.52148 52.4863 7.52148C51.916 7.52148 51.5 7.71289 51.2383 8.0957C50.9766 8.47852 50.8457 9.02734 50.8457 9.74219ZM60.4199 6.39062C60.5293 6.39062 60.6484 6.39648 60.7773 6.4082C60.9062 6.41992 61.0176 6.43555 61.1113 6.45508L60.9824 7.74414C60.9004 7.7207 60.7988 7.70312 60.6777 7.69141C60.5605 7.67969 60.4551 7.67383 60.3613 7.67383C60.1152 7.67383 59.8809 7.71484 59.6582 7.79688C59.4355 7.875 59.2383 7.99609 59.0664 8.16016C58.8945 8.32031 58.7598 8.52148 58.6621 8.76367C58.5645 9.00586 58.5156 9.28711 58.5156 9.60742V13H57.1328V6.51367H58.2109L58.3984 7.65625H58.4629C58.5918 7.42578 58.752 7.21484 58.9434 7.02344C59.1348 6.83203 59.3535 6.67969 59.5996 6.56641C59.8496 6.44922 60.123 6.39062 60.4199 6.39062ZM64.4922 13.1172C63.7188 13.1172 63.0977 12.8359 62.6289 12.2734C62.1641 11.707 61.9316 10.873 61.9316 9.77148C61.9316 8.6582 62.168 7.81641 62.6406 7.24609C63.1172 6.67578 63.7441 6.39062 64.5215 6.39062C64.8496 6.39062 65.1367 6.43555 65.3828 6.52539C65.6289 6.61133 65.8398 6.72852 66.0156 6.87695C66.1953 7.02539 66.3477 7.19141 66.4727 7.375H66.5371C66.5176 7.25391 66.4941 7.08008 66.4668 6.85352C66.4434 6.62305 66.4316 6.41016 66.4316 6.21484V3.88281H67.8145V13H66.7363L66.4902 12.1152H66.4316C66.3145 12.3027 66.166 12.4727 65.9863 12.625C65.8105 12.7734 65.5996 12.8926 65.3535 12.9824C65.1113 13.0723 64.8242 13.1172 64.4922 13.1172ZM64.8789 11.998C65.4688 11.998 65.8848 11.8281 66.127 11.4883C66.3691 11.1484 66.4941 10.6387 66.502 9.95898V9.77734C66.502 9.05078 66.3848 8.49414 66.1504 8.10742C65.916 7.7168 65.4883 7.52148 64.8672 7.52148C64.3711 7.52148 63.9922 7.72266 63.7305 8.125C63.4727 8.52344 63.3438 9.08008 63.3438 9.79492C63.3438 10.5098 63.4727 11.0566 63.7305 11.4355C63.9922 11.8105 64.375 11.998 64.8789 11.998Z" fill="black"/>
<path d="M205.987 19.375C202.942 19.375 199.819 21.1371 197.361 24.6613C197.29 24.763 197.252 24.8833 197.25 25.0068C197.248 25.1303 197.283 25.2517 197.35 25.3555C199.239 28.3125 202.32 30.625 205.987 30.625C209.613 30.625 212.758 28.3055 214.65 25.3418C214.716 25.24 214.751 25.1216 214.751 25.0006C214.751 24.8796 214.716 24.7611 214.65 24.6594C212.754 21.7297 209.586 19.375 205.987 19.375Z" stroke="black" stroke-width="1.375" stroke-linecap="round" stroke-linejoin="round"/>
<path d="M206 28.125C207.726 28.125 209.125 26.7259 209.125 25C209.125 23.2741 207.726 21.875 206 21.875C204.274 21.875 202.875 23.2741 202.875 25C202.875 26.7259 204.274 28.125 206 28.125Z" stroke="black" stroke-width="1.375" stroke-miterlimit="10"/>
</svg>
